<mxfile host="app.diagrams.net" agent="Mozilla/5.0 (X11; Linux x86_64; rv:132.0) Gecko/20100101 Firefox/132.0" version="26.1.0">
  <diagram name="Page-1" id="rtWP_fPGkIw7T7-D5X8Q">
    <mxGraphModel dx="1986" dy="659" grid="1" gridSize="10" guides="1" tooltips="1" connect="1" arrows="1" fold="1" page="1" pageScale="1" pageWidth="850" pageHeight="1100" math="0" shadow="0">
      <root>
        <mxCell id="0" />
        <mxCell id="1" parent="0" />
        <mxCell id="Zpmlk8HqZ0rBQj-vJT5J-1" value="" style="shape=image;verticalLabelPosition=bottom;labelBackgroundColor=default;verticalAlign=top;aspect=fixed;imageAspect=0;image=data:image/png,iVBORw0KGgoAAAANSUhEUgAAAuoAAANWCAYAAACoGKkcAAAABHNCSVQICAgIfAhkiAAAABl0RVh0U29mdHdhcmUAZ25vbWUtc2NyZWVuc2hvdO8Dvz4AAAAtdEVYdENyZWF0aW9uIFRpbWUAVGh1IDA2IE1hciAyMDI1IDAzOjI0OjM4IFBNIENFVLNOp4EAACAASURBVHic7N13fE3nH8Dxz00iw4q9VxArRhFiE4Qg9hZUEatVWiWqSlGldlWpFTPU3momiBB7xBYSZNgrZtbz+yO/3OZKbrbkar/v1yuvF+ec5zzf5znn3vO95z7nuRqllEIIIYQQQgiRak+ePiUiIjJN9mWUJnsRQgghhBBCpClJ1IUQQgghhDBAkqgLIYQQQghhgCRRF0IIIYQQwgBJoi6EEEIIIYQBkkRdCCGEEEIIAySJuhBCCCGEEAZIEnUhhBBCCCEMkCTqQgghhBBCGCBJ1IUQQgghhDBAkqgLIYQQQghhgCRRF0IIIYQQwgBJoi6EEEIIIYQBkkRdCCGEEEIIAySJuhBCCCGEEAZIEnUhhBBCCCEMkCTqQgghhBBCGCCTjA5ACCGEEOJTsGvXLjw8PIiIiKBChQp88cUXmJqaZnRY4l9M7qins59//pksWbLg4uKis3zq1KloNBqGDx+eQZFlvL1795IrVy5q1KjBq1evJJYMIudi+jE3N0ej0fDu3buMDkVkgEGDBqHRaJgxY0ZGh5Li170hteFD9+/fR6PRkDVr1jTZ3+jRo3FycmLWrFnMnTuXcePGYWJiove6nhJKKVq2bEm2bNlwc3NLg6jFp04S9VQaPXo0Go0mwb/PPvtMu/2ePXt48+YNO3fuTHId+/bt46effuL+/fsfownJ8u7dO2279CUXw4YNQ6PRYG9vT3h4eJL37eXlxbNnzzh9+jSBgYE669K7DxKK5VMTGRnJn3/+Sd26dcmePTuZM2embNmyDB8+HH9//4wO76OpVasWGo2GChUqJLptmTJl0Gg01KtXLx0i+3QMHz480fe32H9bt27N6JD/tZJ7rRFpKzg4mFmzZmFiYsK+fft4+/YtPj4+GBkZpei6rs/bt285cOAAr169Yv/+/WkQecJu3LjBTz/9hI+Pz0evS6SMDH1JI9bW1noTAisrK+2/3dzccHd3x8nJKcn73rBhA0uWLKFdu3YUKFAg1bF+TH/++Sdz586lVKlSbNy4kUyZMiW57MiRI8mSJQulS5emXLlyOuvSuw8SiuVT8ubNG1q1asWhQ4cwNjamZMmSZM+endu3b/Pbb78xf/58pk2b9q++e3716lVOnz6Nra1tvOtPnDjBzZs30zmqT0OlSpVo27atzrLTp08TFBRE5cqVdd7bAAoWLJie4f0nJfVaI9LWhQsXCA8Px97eHgcHB+Cf/k7JdV2fzJkzs2vXLo4fP54md+gTc+rUKSZMmECOHDmoVavWR69PJJ8k6mmkQ4cOTJ06NdHtypQpw4QJE5K176dPn6Y0rHR14MABhg4diqWlJTt27CB37tzJKm9pacn3338f77r07oOEYvmU/Pzzzxw6dIjKlSuzadMmSpcuDUTfZd+5cyfDhw/nxYsXGRzlx5MjRw7ev3/PqlWr9Cbqq1atIleuXISGhqZzdIavX79+9OvXT2dZt27dWLduHS4uLnz11VcZFNl/V1KvNSJtPXz4EIB8+fLFWZeS63pCHBwctB8GPrZPJb/4L5OhL5+AT+GFdO3aNTp37oxSir/++ovy5cun6f4/hT4wRJs2bQJgxowZ2iQdwNjYmLZt23Lx4kXGjx8fb1mNRpMuMX5MRkZGtG7dmrVr1xIRERFnfXh4OOvWraN9+/bJGqYlRFowNjbO6BBSzZDbkJaxKaXSbF+GRK6thk8S9XSWnAd2unXrhkaj4dChQwBUrVpVOxZx3rx5OttevXqVXr16kT9/fszMzLC2tmbMmDHx3iV0dHTExMQEpRTnz5+ncePGmJubU61atRS16cmTJzg5OfH8+XNmzpyJo6NjvNslVq+Pj0+ccZbJ6YOnT58yevRoSpcujZmZGYUKFaJ3797cunUrTWKJLTn9bW5ujr29PQDe3t60aNGCnDlzkjVrVhwcHPD19U2kh1Mu5jkCfReZbNmy6S1rbm5OWFgYEydO1PZpiRIlmDhxot79PXnyhDFjxlCuXDnMzc3JmzcvHTp0wNvbW2e7169fY2ZmhomJSZw7+lFRUeTMmRONRsP27dvj1OHs7IxGo0nS+M3nz5/TvXt3Hj16xJ49e+Ks37NnD48fP6ZFixYJ7mffvn04OztTrFgxzMzMyJMnD126dOH27dvxbu/h4YGjoyOFChXCwsKCypUrM336dN6/f59ozBA9vMTCwoK8efPGeY4gOedeRrl8+TLDhg2jfPnyZMmShWzZstGwYUM8PT3j3T4yMpJ58+ZRrVo17QO2H/7Ffl95/vw5P/zwAxUrViRz5szkzZuXTp06ce7cuURjW7JkCRqNhm7dusW7vnTp0mg0Gi5duqSzPDWv4zNnztCuXTty5cpF5syZqV27Nps3byZz5syJxpsaERER/PHHH1SvXh0LCwty5sxJ8+bN9R6HhKS0DX///TfNmjXD0tKSLFmyYGtry8KFC+O8h8S8506aNInIyEgmTpxI4cKF9b4PxPbu3TumTp1KhQoVtO/9X375ZaITASTlmhEZGUn+/Pm1w1DWrVunPSfPnz8P6L+ux7Qp5m77ihUrsLW1JXPmzOTJk4c+ffrw7NmzOHE5OjrqfeYjOcc0Ji4vLy8eP35M7969yZEjB0ZGRsyePRuNRsNPP/0EwDfffKNtV6dOnRLsN5G+ZOiLAWvZsiUFChTAzc2N0NBQevToQd68eQF0EsjNmzfTo0cPIiMjadKkCUWKFOHs2bNMmTKFPXv24O3tjYWFhc6+IyMjOXz4MG3atEEpRfny5WnYsGGyYwwLC6N9+/bcunULFxcXhg0bluD2ya03qX1w7do1mjVrxr1797C1taVRo0bcvXuX1atXs3PnTo4ePRpnXGdK+yAl/R0SEsIvv/zCjz/+iJWVFTY2Nly8eJEDBw7QtGlTbty4gaWlZaJ1J1eTJk1YtmwZI0eOpEKFChQpUiTJZUNCQqhTpw5XrlyhWrVqZMqUiWvXrjF+/HgyZcoUZ2jQlStXaN68OYGBgRQvXpx27doREhLCtm3b2Lp1K9OmTeO7774DIEuWLNSrVw8PDw/tMYhx+vRpnj9/DsD+/ft11gEcPnwYMzOzJD34GRUVRcOGDcmZMycrV66MM4Z01apVlCpVikqVKundh4ODAwcOHCB79uzUqVOHevXqceLECTZs2MDx48e5ceOGzvHetGkTnTp1ImvWrHTo0IGcOXPi4+PDqFGjuHz5MsuXL08w5gcPHtC+fXuioqLYsmWLzrjjlJx76W3SpEmMHz8eY2NjatWqRdWqVbl9+zZHjhyhefPm+Pj46NwUUErRsWNHtm3bRsWKFXF1deXFixcsW7aMly9f0rx5cz777DPKli0LwPv372nWrBmnTp2iZs2auLi48PTpU3bu3Mn27du5dOkSZcqU+ShtS8nreM2aNXz++edERERQpkwZbGxsuHXrFh07diRPnjwfJU7QfT7FysqKLl26EBoaqo111apV9OjRI0n7SmkbRo0axfTp08mZMycODg5YWFhw+PBhBg0axLlz5/jzzz/jlHn8+DF9+/Zl5cqVWFtbU6pUKapXr663jtDQUBwcHDhx4gTm5uY0atQIIyMjVq9ezfr16/WWS+o1Q6PR0KJFC/z8/PD29qZEiRLa60SuXLmS1H+3bt2iQ4cObN26lapVq2JjY8P58+dZsWIFISEh7N27N0n7SekxDQgIYNCgQdy4cYPy5ctjaWmJnZ0dw4YNY9++fVy9epUGDRpQtWpVAHko2dAokSqurq4KUK6urknafsqUKQpQw4YNS9JypZQqXry4AtS5c+firLt27ZqysLBQefPmVefPn9cuj4qKUqNHj1aAmjBhgk6Z5s2bK0AVKFBAdevWTb148SJJsSul1Nu3bxWgAPX27Vv1+eefa//v7u6eYNnE6j1+/LgCVJUqVZLVB2FhYaps2bJKo9GoVatW6azbvXu30mg0yt7ePk1iSUl/m5mZKUBZWlqqjRs3apcHBwerwoULK0AtXrw4vi5LtYcPH6qiRYsqQGXJkkV9+eWXytfXN8EyMecioNq1a6cePXqkXTdx4kQFqMKFC+uUef/+vbK2tlaA6tevn3r//r123e7du1XWrFkVoHbv3q1d/uuvvypADR8+XGdfkydPVubm5qp+/fqqbNmyOutu3LihANWkSZNE225nZ6cAdf/+fTVo0CBlbm6unj9/rl3/4sULZW5uriZMmKAuXLigAFW3bt04+/nzzz/Vr7/+ql6/fq1d9vbtW2Vvb68ANWfOHJ3tY/rBx8dHZ/nff/+tHj58qLMs5tx4+/atUiq6H+vUqaMAtWzZMp1tU3LufQxdu3ZVgPr999/jXX/q1Ck1aNAgFRgYqLM8JsZ27drpLP/rr78UoOzs7FRYWJh2+eXLl5W5ubkqW7asioyM1C53d3dXgGrRooXOfp48eaJ27dqVaPyLFy9WgOratWu860uVKqWAOK+TlLyOr169qi03efJkFRUVpV3n5eWlfV+bPn16onEn91rTt29fBagvv/xSp19v376tChQooLJnz65evnypXa7vGpTSNqxcuVL7mop93r969Uo1btxYAerQoUPa5THvuTGx7d+/P0ntjLkGVahQQd28eVO7PDQ0VA0bNkz73hdbSq4Zy5Yt03ve6Ou7mDbFxHfhwgXtusOHDyuNRqMAnbiV+uf6tGXLFp3lKT2mBQoUUBUrVlS3bt3S23+zZ8+Os06k3OMnT9T9Bw/T5E8S9VSKefMsW7as6tixY5y/KVOm6Gyf1ol67969FaA2bNgQZ927d+9U7ty5VZkyZXSWx7wJVK5cWYWHhyervbET9XHjxilA5cqVS5u8hYaG6i2bWL0pTdTd3Ny0b17xcXJyUoAKCgpKdSwp6e+Yi9zJkyfjlIk5f4YMGRJv7Gnh8ePH6osvvlCZMmXSHrsGDRqoLVu26Fx0Y8Sci05OTnHWv3r1ShkZGSlA5+Ibk/yULVtWRURExNnn1KlTFaBsbW21y86fP689BrHZ29urevXqaT8U3L17V7tu4cKFCojzuopPTKIeEBCgfHx8FKAWLVqkXb9kyRKl0WiUv7+/On36tN5EXZ/t27crQLVp00ZneczrITg4ONF9fJio9+/fXwFq1KhRcbZNybn3MSSWqOvz4sULBajs2bPrLO/Tp48C1NKlS+OUcXR0jJM0z507VwFqwIABKYo/tYl6cl7HMW3r1KlTvHUNHDgw2Yl6Uq41fn5+ysjISFWpUiXe1+OMGTMUoNasWaNdpu8alJI2REVFqRIlSihTU9M4H9iUUtrXW+xjGDupXb9+faL9oZRSt27dUkZGRsrIyEhdvHgxzvqQkJB4E/WUXDNSk6gXLlxYPXv2LE65mPeoD9sbX6KemmNqbm6u7ty5E29bJVH/ONIyUZcx6mnk+vXrbNq0Kc7f0aNHP2q9O3bs0I6dfPXqlc5feHg41tbW3Lhxg7CwsDhlv/32W0xMUj76aeLEiWTLlg1PT0+cnJwICgpi0qRJiZZLbb0fihm/2Lp16zh98OrVK+2DrR+OOU1JLKnpb2tr6zjLSpQoAaAd6vEx5M6dGzc3NwICAhg7diz58uXjyJEjtG/fnnr16umdJ75UqVJxHijNkiWLduhR7Jhj5g/u379/vA9wDRkyBIge1hIzF36VKlUoWLAgvr6+PH78GIieQ/jYsWM0aNCA+vXrA+iMRY95VqFp06ZJbr9SCjs7O8qXL8+qVau0y1evXk3Dhg0pUaJEkh8UCw8P5/z587i7u2u/rg4ICNDZpnfv3gA0a9aMXbt2ERkZmaR9z5s3jyVLluDo6MiUKVPirE/NuZdRlFLcunWLzZs3s2jRIkxNTXn58qXOuNyYh3jjG+scsyz2g8CtW7cmR44cLFmyhFGjRhEUFPSRW6ErOa/jmNfFiBEj0qz+pFxrdu7cSVRUFE5OTrx9+zbO+RIzNCgpz8ekpA0XL14kICCAWrVqYWlpGad+KysrjIyM4q3fysoqyWOkd+/eTVRUFA4ODgkOX/tQaq4ZKZEnTx5y5MgRZ3ly3v9Tc0y7detGsWLFUtcIkWFkjHoacXV1Tfcps549e6a94CU21vH9+/dxfuY4vjHRy5cvx8/PT2eZmZkZP/74Y5xtTUxM2LBhA5UrV2b27Nns27ePOXPm0K9fvwTHiKb1WOyYB/r0PcQaI74H+ZITS2r7Oz7m5uYAiSZzhw8fjvfhySFDhlCoUKFE6wEoVKgQkyZNYuzYsaxatYoff/yRY8eO0bJlS86ePZvkDyzxxRzzwKO+454tWzYKFixISEgI/v7+2rnwmzVrxooVKzh06BCdOnXCy8uL9+/fY29vj52dHaampuzfv5++ffsC0Yl6rly5UvTg8+eff873339PQEAAmTJl4siRI0n+5b8DBw4wf/589u3bx+vXr8mRIweFCxcGoh+MjW3GjBkYGxszd+5cnJycKFiwIL1792bYsGF65xk/dOgQ33zzDRDdl+Hh4ZiZmWnXp9W5N378+DjnWrly5ejZs2eC+0yua9euMWfOHLZu3cqDBw8wNzfH2tpa+4Ho9evX5MyZE4A6derg7u7Onj17dB7wDA0N5dixY1haWurMIlWiRAn27dvHF198wfTp05k5cyZNmzZl8ODBtGvXLk3bkVTxvSZCQ0O1H0ArVqyYZnUl5VoT8544efJkJk+erHe7xB5uTmkbYuo/cuRIgg+sx1d/9uzZkzzjVMz7TnL7NzXXjLSU1Pd/SN0x/RjPP4n0I4n6JyzmomdmZsb+/fsTfHNL6M0yttWrV3Pw4EGdZVmyZIk3Uf/jjz9o3rw5ED1TwvDhw5k2bRpff/11vDNsfCwx/fDnn39iY2Ojd7vk3HFJqJ607O+k8vLyivfNuV27dklO1GOYmZnRv39/WrRoQeXKlfH19WXLli107tw5xfHF9E1SLrCxt2nevDkrVqzAw8ODTp06cfDgQczMzKhbty4WFhbUqVOHgwcPopTixo0bhISE0KlTJ4yMkv9lYK9evfjhhx9wd3fH3NwcCwsLOnbsmGi5IUOGsGDBAkqXLs2UKVNo0aIFpUuX5tKlS/GeU8bGxsyYMYPhw4fj7u6Om5sbv/76K/PmzWP16tXxJpPdu3cnV65cODg44O7uzuTJk5k4caJ2fVqde5MnT46TFLRq1SpNE/VVq1bRv39/MmfOzJdffkm7du347LPPMDExIU+ePDx58kRn+759+7Jw4UJWrlxJ8eLFtTNhjBo1ivv37+Pm5qbzoQWgRo0aXLhwgf3797NixQo2b97Mvn37aNq0Kdu3b8/wB2pB91uA9+/fp9nP2CdFzPkycODABI9tYndZU9qGmPpr1qzJzJkz9W6X2gQyJr7kJtTpdc1IS2l1TMWnRxL1T1jOnDmxtLTkxYsX5M2bN01+QfPAgQNJ3jbmK/4YP/74I6tWrWLv3r1s3bo13e5ulShRAl9fX5RSH/Un4D9GfyfV2LFjGTt2bJrus3DhwjRq1IjNmzfH+RYluaysrPD19eXGjRvxrn/16hUhISEAFC9eXLu8WbNmGBkZab+2P3DggDZJh+ghLocOHcLX15dTp05pl6VEoUKFaNasGatXr8bCwkI7M0tCdu3axYIFC7C1tcXLy0t7BywpihQpgqurKyNHjmTZsmUMHjyY7t27c+vWrTgfrt69e8eePXuwsbHh0KFDTJ06la5du2qTiLQ69+KbSz4tPXnyhAEDBmBubs6ZM2coWbJkomXMzc0ZNmwY/fv3Z8aMGdoPKPny5cPNzY0vvvgi3nLGxsY4Ojri6OjIvXv3cHZ25sCBA7i6ujJ37ly99cUMzYqZuvRjsbS0xNzcnHfv3nHnzp1k/wBcasQeUpGa98SUtiGm/rt3737U9+SYb+bu3LmTrHLpdc1IS2l1TMWnR8aofwJikok3b97oLI+ZNgpgzpw56R7Xh7Jmzar9Svabb75J0wuhvj6A6DuCEH2H/2P+aI2h9XdilFLMmTMnwbmE7969C5Dsu/Ifipn20M3NjaioqDjrFy5cCEC1atV0hn/kzp2b6tWrc/nyZe7cucP58+d1EvGYfx86dIjjx48DpOoX+/r06cO1a9c4d+4cffr0SXT7mPnfO3ToECdJj6+d8TEyMqJfv344ODjw7t07zp49G2ebFStWYGdnR9asWZk9ezbh4eG4uLho6/hUzr0zZ87w7t07atWqFW+SHt+zAL6+vgwcOJAxY8bw6NEjTp48yblz5wgKCtKbpH+oaNGi2ju3x44dS3DbmLHC8SV3/v7+2l+gTC0jIyPs7OwAcHd3j3ebjzW0omXLltr5x/XN9Z8UKW3DZ599RqFChbh//z5//fVXiutPTO3atYHoD/jxHTd9/Zte14y0lFbH9EMJXVuFYZBE3UBkypQJiH+sWsw8yjEP0sU2duxYzM3NWbRoEYsXL9ZZFxkZycaNGz/6OLvYevXqhZ2dHQEBAWk6Zj+hPujTp492KMKQIUPifEA4fvw4N2/eTJM4DK2/EzJ79my++eYbqlatyvr163Xiev36NaNGjeL06dPkyZOHtm3bpqqu3r17U6pUKa5cucKgQYN0HmjcvXu39i5p7OEcMZo3b05UVBRz5swhKipKJ1G3tbUlR44ceHh44O3tjZWVVZLu0urTtm1bcubMqTMXckJiPlR8+INN586dw9nZOc72b968oX379nGeJwgNDeXKlSsA8cYfe674zp0706xZM44fP86CBQu0yz+Fcy+mv3x9fXn58qV2+YMHD+jYsWO8v4J47NgxIiIisLKyInPmzNSoUUM7VCY+q1at4uuvv47zQ1k+Pj5A/P0bW8xc0efPn9f5kZizZ89ib2/P27dvk9DSpBkwYAAQPcQidl2RkZFMmzaNlStXplldsZUrVw5nZ2fevn1Lt27dCA4O1ll/584dDh8+rLNM3zUoJW0wMjLSvtaHDh2q/ZAdIzQ0lC1btqSwdf9o0KABZcuW5e3btwwZMkTn2F2/fl3vt7rpec1IKyk5pkkRc21NSVmRTtJ7ypp/m7SaR33Lli0KUDlz5lS//fabzrqtW7cqQBkZGSlHR0fVunVrNW3aNO36TZs2KQsLCwWoMmXKKGdnZ+Xk5KR3bl99c7QmxYfzqMfn5MmTSqPRKHNzc+Xv75/kehOanjGxPrh69ap2Cse8efOqjh07qs6dO6sKFSooQDk7OyerDxKKJbn9HTOtW3zTcyU05VdqhYaGKmdnZ+3xypIli6pSpYqqWLGiypw5s3aqPE9PT51yCU0VqtQ/U2VevXpVZ7mvr6+2DwoXLqzatWunatWqpTQajdJoNGrq1Knx7u/o0aPa+HLmzKkzZ7ZSSrVr105lzpxZaTQa5eLikuT2x0x9FvscVEqpffv2qSNHjugsO3XqVLzTMwYGBmqnW6xUqZLq2bOnqlevnjI2NlaDBw9WpqamqlSpUtrt9+/frz03atSooQYNGqT69eun7ZfevXvr7P/D6Rlj3LhxQ5mZmals2bKpe/fuaZcn99z7GBKanjEiIkLVrl1bAapgwYKqe/fuqlWrVsrCwkLZ29urKlWqKECnTZcuXVKZM2dWpqamysHBQfXo0UM5Ozurnj17qgEDBqgpU6aoy5cva7dv1qyZ9r2yS5cuaujQocrR0VFpNBqVNWtWnbmq9WnZsqUClImJiapRo4aqVq2a9vyKmQZT3/SMyX0dx/SXRqNRNWvWVE5OTqpQoUIqR44cqmPHjsmenjGp15rY85Wbm5srR0dH5ezsrOzs7JSJiYkqXry4zjR/CV2DUtqGUaNGacvVqVNH9erVSzVu3Fhlz55daTQadf36de22Cb3nJuTEiRMqW7ZsClB58uRRrVq1UnXr1lXGxsaqTZs2Km/evHGmZ1Qq+deM1EzPqK9NMVMjLliwQGe5vutTco9pYu/lSkVPYWlubq6dPrdz586qe/fuercXSSPTM/4LtWrVio4dO/L+/fs4D2K2bduW5cuXY2VlxcGDBzl37pzO11QdOnTgwoUL9O/fn3fv3rF+/Xq8vb2pUKECmzZtol+/funalho1avD555/z7t27OD+pnFKJ9UG5cuU4f/4848aNI1++fOzatYvdu3djYWHBrFmzWLRoUZrEAYbX3/pkzZqV1atXc+rUKQYPHkzhwoXx8/PDz8+P4sWLM2LECK5cuUKjRo3SpL6KFSty4cIFvv/+e7JkycLu3bvx8/OjXbt2eHl54erqGm+5WrVqkSNHDl6/fo29vX2cB0UdHBx48+YNSqkUj0//cH8xUz8mpnDhwnh4eNCiRQsCAwPZvn072bJl49ChQ8yfP187RjZGzK9Tjho1ijdv3rBixQrWrFlD/vz5mTdvHsuWLUtSvdbW1owaNYrQ0FC+/PJL7XJDP/eMjY3Ztm0bLi4uGBkZaWd9mT9/Ph4eHlSpUiVOmfLly9OmTRsyZcrEmTNnWLNmDe7u7qxevZpFixbx/fffU6lSJW3f/f3332zcuJG6devi6enJggULOH/+PN27d+f06dNUrlw50Tjd3d3p06cPlpaW2rHKK1asYNGiReTPnz9N+8Td3Z158+ZRpUoVLl68yPHjx2nUqBEXLlz4qMcrS5Ys7Nu3jyVLlmBra4u3tzcbN27k6dOnfP3113h7e+tMpZrQNSilbfj11185ePAgrVu35saNG6xdu5arV6/i5OTEqVOn0uQXZGvWrMmpU6fo3r07Go2GAwcO8PLlSxYuXMi2bdt0ftk3tvS8ZqSV5B7TpChQoACHDx+mRo0a+Pr64uHhQWhoaJKnrBUfn0bJ0RBCCJFBhg0bxuLFi/Hx8dFJsqOionj06BG//fYbU6ZMoVy5cly9ejUDIxVCiKR58vQpERFJ+w2NxEiiLoQQIkM8f/6c3Llz4+joyK5du+Ld5t69exQrVoxSpUqlenYiIYRID2mZqMvQFyGEEBlCo9Gg0Wg4e/YsDx48iLM+MjJSOy1pjx490js8IYTIErHaQQAAIABJREFUcHJHXQghRIb57rvvmDlzJnnz5qVr166UKVMGIyMj/P392bBhA3fv3qVnz564ublpZyYRQghDJkNfhBBC/Gvs2rULNzc3zp07x/3794HoB3nr1KlDv379aNCgQQZHKIQQSSeJuhBCCCGEEAZIxqgLIYQQQgjxLyeJuhBCCCGEEAZIEnUhhBBCCCEMkCTqQgghhBBCGCBJ1IUQQgghhDBAkqgLIYQQQghhgCRRF0IIIYQQwgBJoi6EEEIIIYQBkkRdCCGEEEIIAySJuhBCCCGEEAZIEnUhhBBCCCEMkCTqQgghhBBCGCBJ1IUQQgghhDBAkqgLIYQQQghhgCRRF0IIIYQQwgBJoi6EEEIIIYQBkkRdCCGEEEIIAySJuhBCCCGEEAZIEnUhhBBCCCEMkCTqQgghhBBCGCBJ1IUQQgghhDBAkqgLIYQQQghhgCRRF0IIIYQQwgBJoi6EEEIIIYQBkkRdCCGEEEIIAySJuhBCCCGEEAbIJKMD+NDBgwfZtWsXt2/fJjAwkFu3bvH8+fOMDksIIYQQ4l8ta9asFC9enGLFimFlZUW9evXo3r17Rof1n6ZRSqmMDgLAy8uLwYMHc/ny5YwORQghhBBCAEWLFmXWrFl06tQpo0P5ZDx5+pSIiMg02ZdBJOrfffcdM2fO1P6/V69eNGzYkLJly1KmTBny5cuXgdEJIYQQQvz7hYaGcuXKFa5fv87Jkyf5448/tOucnZ1ZvHgxFhYWGRjhp+Ffk6g/efKELl264OHhAUCLFi2YNm0aFStWzKiQhBBCCCEEEBAQwA8//MCaNWsAqFKlCtu2baN48eIZHJlhS8tEPUMfJt2yZYs2SR83bhy7d++WJF0IIYQQwgCUKFECd3d3baJ+4cIFFi9enMFR/bdk2B11pRSVKlXi8uXLDBw4kD///DMjwhBCCCGEEImYNm0arq6u5MmTh4CAALJkyZLRIRmsf8XQl4CAAKysrAAIDg6mYMGCGRGGEEIIIYRIRFhYGDlz5uTNmzd4enrSqFGjjA7JYP0rhr4EBAQAUK5cOUnShRBCCCEMmKmpKQ0aNAD+yeHEx5dhiXpUVBSAPD0shBBCCPEJiBnuEhERkcGR/HfIL5MKIYQQQghhgCRRF0IIIYQQwgBJoi6EEEIIIYQBkkRdCCGEEEIIAySJuhBCCCGEEAZIEnUhhBBCCCEMkCTqQgghhBBCGCBJ1IUQQgghhDBAkqgLIYQQQghhgCRRF0IIIYQQwgBJoi6EEEIIIYQBkkRdCCGEEEIIAySJuhBCCCGEEAZIEnUhhBBCCCEMkCTqQgghhBBCGCCTjA7gv+rV67ecOXOZq9duE3L/MRERkRTIn5sy1iWoXr0CeXLnyOgQhRBCCCFEBpJEPQN4HDrJQQ+f/yfneahQvhSmpiYEBj3k8JFTHPT0oZZdFVq3akimTHKIhBBCCCH+iyQLTEfv34fhvnYXV67eplrV8rRv2wQLCzOdbSIjI9m77xieh09x504w/b7oQPbsWTIoYiGEEEIIkVFkjHo6OuhxgitXb9O7Z2t6dGsZJ0kHMDY2pmWL+nw1pDsPHz1lw6Z9KJUBwQohhBBCiAwliXo6CQx6wKEjp2jYwJbKlcokun3xYgXp0K4JV6/d5szZy8muz9GpFydOnktJqABs37mfwV+NSXH5hLgMdmX3Hs84y4/7nOG4z5kU7/emnz/2Dl0BWL5yAz+Mm57ifcXm6NSL8pUaU7l6M+3f4yfPdOr7lDx5+ozK1ZslefuP1a8fGv3DFFav2fxR9h1bas8z+OccjoyMpGqNFvgH3Euj6JIvucczIQc9vSliVVPnXP/5l7kA2FRpwosXoWlSjyFIqN+Cgx/wed9vta/7b0dO4vnzl+kcoRBCyNCXdHPo8Cny5M5JS8d6SS5Tw7YiFy7ewMPzJLbVbT5idIbhuM9ZAGrXqp7BkcS1fOlM7GpW1Vn27NnzDIpGpEZanmfGxsasXzufEsWLpHpfhsKuZlU2rVuY0WFkmHfv3tOh6wD69enK0kXTeB8WzqTJc3AZ5MqGvxZkdHhCiP8YuaOeDqKiFFeu3sauZiWMjY2TVbZO7c94+Ogpz56l/G6OTZUmzJm7lBate9OwSWcOe/nEE2MUY36cRhXb5ji0cObChSvadS9fvqL/oFHY1W1DrfptWfPXVuCfO639B46iY9eBcfa5ddte6tt3pHaDdnTvNTTeO1Jz5i7F+fOv2bZjP1Onz2fq9Pm4jpkS52717j2euAx2TTAefa5dv0XLNp9jV68tDi2cOX3mIhB9d3jwV2Po5vwlDZt0ZtCXY4iIiEhCj/5DKcWIUZOo3aAd9g5dueh7Vbvu1xkLsKvbBttarRjz4zSioqK46edPU8ceDPt2PA4tnHFq14eg4PtJbldC/eIy2JXxE2fRtmN/6jbswB8LVmi3W/vXNmxrtaJB4064r9XfX5On/I5dvbbY1WvLjz/NQCUw7kpfvEnt18dPntHN+Utsa7Wia48hOue4vnPHpkoTJk3+DXuHrtwLDInz7Yy9Q1du+vnr7eddf3vonGcAO3YdoL59R2rUdsL58695+OhJvHXp065jf16+fJXgvi5dvkHj5t2o3aAd346cRJPm3fH3v5tgmZQez+Sed8mxYvVGbazrNuzQLk9JG1JSJsbHfB3s3H2QMqVL4tKvByYmJmTJbMHPE0ZibW1FaOireN/3Yn/b8OJFKDZVmgD/vBa69xpKU8cedO81lKf//4BvU6UJv/2+lNbt+1LfvmOq+1MI8e8kiXo6eP3mLWFh4eROwZSLuXNbAvD02YsU1x8VpShYMB9/71jJuLHD+fmX3+Ns89f67Vy4eIWT3jvYuXUZx2INDZg4eQ7Wpa044b2dXduW89vvbtokw+9WAGNcv4pzB04pxZVrN9mw9k+OH9mKdekSLF32l842i5euwfvYadwWzaBtawdGjxzC6JFD+PWX7xNsT0LxxMdl0ChcRw7mxNFtTJ86hoFD/tn/hYtXcVsyE499fxEYFIznoeMJ1v2hK1dv0tyhIcePbGXkiEG4DB4NwJZtezh1+gJenps44b2doKD7rFsffSH2vXSN4V/3Z//f7tjVqMripWtT1K74PHnyjG2blrBt81Lm/L6Uly9fcfv2XSb98htbNi7hiMdGHv3/ov+hhw8fY5LJhCMHN3Ds8GZOnDyf4PCphOJNSr+OnzCTcuVKc9pnF9Om/oDHIW8g8XOnbNlSeO5fR9EiBRPsi/j6uVWLxjrnWWBQCBMmzWad+3xOHd9JvTo1mPjznGTXBSS4L5fBoxgxfADHj2ylaZN6+F66lmgZSP7xTMl5lxzPnr3Ay3MTG9ct5KeJs7l7LzhFbUhJmeRIzevg0uXr1LLT/fbMxMSEXyaNIlu2rID+9734HPE6wdzZEziwZw2VK5Vj0uS52nVh4RHs2OLGpnUL+XnK7ynuTyHEv5cMfUkHoaGvATA1zZTsshbmZv/fx5sU129kpKFpk+ghN9WrViIk5EGcbbyOnqRn9/aYmZkC0K1LG3xORA8RWLl6EwUK5GXP3kMAPHjwiOs3b1OqZHFKlSxOyZLF4uxPo9Ew0MWZ/QeO4ufnzxGvE9SuVU27ftXqTRz09CbA77i2zqRKKJ4PBdwJ5PqN2/w0cbZ2Wcj9hzx5+gyABvVrktnCHIDKlSoQHE/fAPQbMBJT0+g4S5cqzvq10V+BFyiQl2YODQBo6WiP65gp3AsMYfceT454naB5q54ABAXfp1SpYtjaVqaMtRVWJYoCUK1aJbbt2Jdgu6ys4vavPjGx5Mmdk8KFCvDw0WN8TpylsX1dbbL5ea9O2jpjy5cvDx3bt2DVms34+98jMDCYR4+fkjt3znjr0hcvJK1fvbxPsmPLMgCKFyuMfaM6QOLnTrOmDZLUF/r6ObYjXie4ey8Y58+/BuDVq9dkz54t2XUltK87d4N48+YtrVo0BqLPk3x5cyet/mQez5Scdx86eeo81Wq21P5/+tQxNGkc/f7R27kDEH28GjaoxbHjZ4iKikx2G06eOp/sMtmzZ03agUhBv8X24bdIPfsM48qVm4S+esWKpbPJmzeX3ve9+DRsUIu8eXIB0K1zazp1G6xd16lDdD/ny5eHenVsU9yfyekbIcSnRRL1dJAvb/SbdEjII8pYx00mExIc8giAXDmzpyoGE+PoQ63RaOIdzqDRaFD8szz2NgUL5mPvztUUKJBXp8xNP380Gk289T15+oymzXswoH8PHJrWJ0cOSwKDgrXrw8LDKVe2FFu2/o1z9/ZxyhtpjHRiCA8LT1I8H1JKYWVVDM/96+KN09j4n5eAvr4BWLpoepwx6tH7/+D/UVFoNJDJxIQF836hY/sWcWI0MYm/Tn3tii2hfgHi3feH7dLXxsNePnz/w68MG9qXzh1bcv/+wwSHvuiLd/nKDUnqV31xJXbuxD7nPuyPsFj9oa+fY1NK0bNHB2ZN/zHeNuo7v+Ojb1+3b9/Vvv5iGJsYJ6n+5B7PlJx3H6pZ4zO9d4pjF4lS0ed6StqQkjKxfczXQaWK5di6fS9DBvUGYPXy3wCo27CDNmH+8LzQGP0TT1i4biyRkVHaf0dERhK7aFQ861LbN0KIfxcZ+pIOTEyMyZc3F0HBD5NdNjDwAWZmpuTPn+cjRPaP+vXsWL1mC2Fh4bx/H6YzXtK+YR3cVkQnui9ehNKl+2DtHWl97t4NJnv2rLj06061qpU46n1SZ32/L7qxesVcpk5fwJmzvgCYmpry6nX0tw9FihQkMOg+QcH3iYqKYseuAymKJ+YhP8/D0UMvLl26zhf9RyS5XxLz4MEj9u47DMCuvz3Ilj0rRQoXxL5RHdzXbuH9+zCioqIYMWoSXkdPJrivpLQroX7Rp06t6nh4HtOOs165elO82/n6XqduHVu6dm5NwQL5OHXmQqrjTUiDenYsW7EegDt3gzj0/2OU2LkTm5VVUby9TwHRx9bvVkCi9cY+z+rWqYHnoWMEBkX3zYpVG5n7x7IktyE2ffsqUaIISikOHYl+NuSgpzchIQ9TXH9CxzMl511yrHSPruvO3SC8vE5St45titqQ2n7/mK+DVi0b43crgD8XrSYsLJywsHB+nbEAU9NM2FSwjreMVYmiHD0WfR5u37GfqKh/kmfPw//U6bZ8HQ0b1NKuW7F6IxD9zV9q+lMI8e8ld9TTia2tDQcO+vDixSssLZP2NWVERAQnTvpiU6EUZmbJHzaTHF07O0WPzazXlnz5ctO0cT1u3b4DwMTxIxjhOomqNVqQObMFfft0JXeunDx9qn/WkyqVy1O7VjVq129HtmxZqVK5QpxtihUtxO9zJtJ/4Cj27lpFS0d7enw+lICAQNwWz2CM61e0btcXS8tsNG1cj4C7gcmOR6PRsGLpLL4dOZFRoydjaZmdieOTn6j36TeCTKb/vFx2bl0OQNXPbDjo6c3PU+ZiYmLCwj+iH1Ds1KElt/3vUqteW8wtzKhb25aaNT7j7r0gvXXoa1dsZmamevtFHyurYowbO5wOnV3ImjULzj3ifoMB0L1bGwZ/OQa7em0pVDAfNuUTnkY0KfEm5Kdx3/Dl0LHY1W1DyZLFafn/oSFJOXdi9PuiG/0GjMS2Vitq16qe4LYxPjzPJv40gi7dhxCloihetDCzZoxLchtiK1G8SLz7MjIyYtGCqXzn+jPvw8KoWeMzypcrDRqN3jIJSeh4puS8+9CJk+d0pi10atGEX36OflCzSJGC2Dt05dWr10wY/y1FCkcPI0luG1LS7tg+5uvAwtyczesWMXb8dGbPXYJSivp1a7J21Ty937D8OGYYw0f8xKRf5tKrRweMjP7Zrmnjeox0/Znb/ncpVaoE8+f+rF2XP18ebX9O/GlEivtTCPHvpVEZ9L2Zh4cHTZo0oWrVqpw9ezYjQkhXkZGRTJu5nJw5szPIpXOSymzd5sHJU764juyX5OReCGF4Dnp6U/UzG3LlzMGjx0+xb9oFn6PbyJpVfnX432z5yg3c9Atg8sSRcdbZVGnCsSNbsbTMFk9JIQxTp06d2LRpE4sXL6Z///4ZHY7BevL0KRERkWmyL7mjnk6MjY3p3bM1f8xfy6YtB2jbupHOWMPYlFIcPnKao8fO0cvZSZJ0IT5xr1+/oWOXgURFRWFiYsL0X8dKki6EECJRkqino8KF8jHQpTMrVu/gxs07tGvTmJJWhbWznkRERHAv8AE7dh0mJOQRvZydqFK5bAZHLYRIrTZODrRxcsjoMEQ669Nb/7enly8cTMdIhBCfKknU01nx4oUY+W0fDnqewH3tLt69e0+uXJaYZjLhwcMnZDIxoVKlMvTq4UTOVM70IoQQQgghPl2SqGcACwsznFo2oKVjPQLuBHP//mMiIiLJnz83Ja2KkCmTHBYhhBBCiP86yQgzkJGRESWtilDSqkhGhyKEEEIIIQyMzKMuhBBCCCGEAZJEXQghhBBCCAMkiboQQgghhBAGSBJ1IYQQQgghDJAk6kIIIYQQQhggSdSFEEIIIYQwQDI9YwaLiori0aNnRERGkj9fLkxM5JAIIYQQQghJ1DPM1Wu3OXb8Ajdu3iEyMhIAjQasShTBtroNttVtMDLSZHCUQgghhBAio0iins7evHmH+9pdXL8RQNGiBahb5zMKF8pHpkwmBAU95F7gfdZv3MuRo2fo3bM1+fLmyuiQhRBCCCFEBpBEPR2FhDzCbcVW3rx5R+eOzbCrWUlnfeVKZQC4cfMOa/7azdx57nzeqy3WpYtlRLhCCCGEECIDycOk6SQqKorNWw/y5s1bvh3WK06SHlsZ6+K4fteXLFkys2XbQd69C0vHSIUQQgghhCGQRD2d+F66iX9AEO3bNiF37hyJbm9hYUbP7q14+PApHodOJLs+R6denDh5LiWhArBl2x6GDh+X4vIJcRnsyu49nnGWH/c5k6qYb/r5Y+/QFYDlKzfww7jpKd5XbI5OvShfqTGVqzfT/j1//lKnvk/Jw4ePqVazZZK3/1j92tflOzZs2pXu/Xjc5wwtWvembMVG1KzTmnnzV6CUSrf6hRBCiKSSoS/p5Njx82TJYoFtdZsklylatAClSxfj9JnLtHSs/xGjMwzHfc5ibGKMXc2qGR1KHMuXzowT16PHTzIomn+HCeNHkCtXDoKD76dbnddv3MZlkCvzf59Mg/p2BAXfZ+CQ0SgUQ4f0Sbc4hBBCiKSQRD0dREVFcds/KFlJeoyy1iXw87tLSMgjChbMm6L6bao0waVfD/buP8zbt++YOH4EDerbxYlx7PgZ7N7jQd48ualbx1a77uXLV3w7aiK+vtcwMjZi2Ff96NalNTf9/BkweDSlShbn2fMXbFq3UGefW7ftZdZviwmPiKBE8aIs+H0yOXJk19lmztylnDnnS+eOrZg6fT4AD+4/4os+XRgweDSe+9cBsH3nfv7e48mCeb/ojUefa9dv8e3IiTx5+pwcltn4ZZIr1atVYvnKDficOMfz5y8Iuf8QmwplmDt7QrKmyFRKMWLUJI75nMHC3JzfZv1EpYrlAPh1xgI2b/mbyMhIWjjaM2Hct9y6fYfBX/2ATQVrrlz1w9zcjIV/TKFQofxJaldMn8fXLy6DXSlUMD/nL1zhyZNn9OjWliGDegOw9q9tzJyziMyZLejQroXe9kye8jvbdx0AoFnT+kwcP0LvtvriTWq/Tpw8h/ZtHbEuXYLw8AgGDvme02cuUqhgPhbOn0qhQvlxGexKrpw5OH3mIsO+6kujhrX1nov6+jW2Pxet5uuv+mrP/8KFCvD7nEls3LwbiP7G4Kj3KR48eESNGlUoVrQwN/0CmDxxJACjf5hCRZuy9OzRAZsqTRjQvwcHPLx5/vwFw4b2o1OHltz082fQl2OoWLEsfn4BhIWFM2v6jwmeF0ZGRkl6nQohhPhvkaEv6eDFi1copShbpkSyy5YtG13mZejrFNcfGRlFkSIF+XvHSsZ+/zVzfl8aZ5u/1m/nwsUrnDi6nZ1bl+kMQZk4eQ7Wpa044R29bubshfj73wXA71YAP4z+Kk6SrpTiyrWbbFi7gONHtmJdugRLl/2ls83ipWs4dvw0S/6cRhsnB0aPHMIP3w/ll59dE2xPQvHEx2XQKEaPHMKJo9uY8vNoXAb9s3/fS9dYtnQmHvv+IuBOIKfPXEyw7g9duXqTFs3tOX5kK999OxCXwdH73rJtD6dOX8DLcxMnvLcTcCeQdet3aOv8dvgA9v/tjm31yqxdty1F7YrPs2cv2LZpCVs3LWHO70sJD4/g9u27TPrlN7ZsXMIRj408efos3rIPHz4mk2kmvDw2cuzwZk6cPJ/gUKSE4k1uv964eZthQ/ty5sQuKlQoo+0TgLCwcA7uXUub1g6J1hlfv8Z26fJ16tSqrrPMqkRRRn47UPt/v1sBrFu7gHE/DE8wZoh+be3Y4samdQuZ8PMc7t4L1sbSrXNrdm1bztgxQ5N0XiTldSqEEOK/Re6opyMTE+NklzE1zZTqeo2NjbBvVBuAzz6z4XY8yZ/X0ZP07N4eMzNTALp0cuLsuUsArFy9iQIF8rJn7yEAHj16wvWbtylVsjilShbHyirurDQajYaBLs7sP3AUPz9/jnidoHatatr1q1Zv4qCnNwF+x7V1JlVC8Xwo4E4g12/cZvzEWdpl9x880iar9evVwMLcHIBKFctx2/8uteyqxdlPvwEjMTWNjrN0qeKsX7sAgCKFC9K0ST0AWjra4zpmCvcCQ9i9x5MjXido3qonAEHB97EuXQJb28qUsbaieLHCAFStYsPe/YcTbFd8/atPTCx5cuckX948BAXf55jPaRrb16VokYIA9HLuwK7dHnHK5suXhw7tHFnpvgl//3sEBgbz6PFTcufOGW9d+uJNTr/GKGNdkgrlrQGoW9tW2yex25RQnaVKFtfbr7EppaJ/sAAIDX1FwyZdAHj2/AV+V48AUKe2LZktzPXGGlvnTk5AdN/Vq2PLseNnqF6tIkWLFKL2/z8QNKxfizdv3iZ4XkDSXqdCCCH+WyRRTweWllnRaDQEBT+kok3pZJUNCnoAQLasmVMVg4lx9KHWaKKHuXxIo9Gg+OeBushY2xQsmI+9O1dToIDu0Jubfv5oNPH/KNOTp89wcHRmQP8eODStT44clgQGBWvXh4WHU65sKbZs/Rvn7u3jlDfSGOk84BceHpGkeD6klMLKqph2qMiHjI3/eQno6xuApYumxzt2/sOHEFVUFBoNZDIxYcG8X+jYXneYyU0/f90hILHq1Neu2BLqF0Bn3xpNTDwanTKRkfG38bCXD2PGTmPY0L506dSK+/cfJviQpb54l6/ckOR+jZEpU/x9El3+n3MsoWOvr19jq1SxHEe9T1LRpgzZsmXl7MndPHz4mLqNOmBsbBynPiMj3f4OC9Pt75gfKwOIiIyM+QxAZFSk7nYRkQmeFzESe50KIYT4b5GhL+nAyMiIokULEBz8MNllA4MekC1bFgoVyvcRIvtH/Xp2rF6zhbCwcN69e8/6DTu16+wb1sFtRXSi++JFKF26D+bps+cJ7u/u3WCyZ89K/77dqFa1Eke9T+qs7/dFN1avmMvU6Qs4d/4yAKamprx69QaAIkUKEhh0n6Dg+0RFRbHz/+OmkxtPieJFAPA8fByAS5eu02/AyCT3S2KCQx6w/4AXADt2HSBb9qwUKVwQ+0Z1cF+7hffvw4iKimLEqEl4Hzud4L6S0q6E+kWfOrWq4+F5jHuBIUD0txnx8fW9Tt06tnTp5ESB/Hk5deZCquNNa6mtc9CAnvz+xzI8Dh0D4Omz5wwdPo5uXdrEu71ViaKcOn2B9+/DeP78JUe8fHTWL1+5AQB//7sc8TqhfbYjOPgB+/ZH36HfvmN/qs4LIYQQ/12SqKeT+vWqce26P/fvP05ymdev33Ly5CVq2Cb/IdTk6trZic8qV8CubhvadepPY/s62nUTx4/AP+AeVWu0oGWbz2nerBG5ciY8xWSVyuWpZVeVOg3a09ypJ4ULF4izTbGihfh9zkT6DRjJo8dPaeloz87dB+g/cBRmZqaMcf2K1u360tSxB2XKlExRPBqNhhVLZzF95p/UqO3E8O8m0L9vt2T3T59+I3SmZ4wZi/xZlQrs2XeI+vYdmTVnMQv/mAJApw4tsatZlVr12lK3UQc0Gg01bKskWEdS2pVQv+hjZVWMH3/4mvad+mPv0JXi///w8qHu3doQEHCPWvXbMnjoD9hUKJvqeNNaaussW6YkbotnMHP2IkqXb0DDJl2oUKEMP44ZFu/2dWpXp6JNWWrVa8sXLiOoU9tWZ32uXDlo1LQLXZ2/ZNJP31GkcPTwogrlrdm7/zD17Tsye+4SFs2fCqTsvBBCCPHfpVEZNIGwh4cHTZo0oWrVqpw9ezYjQkh3i5Zs5Omzl3z3Te8kzSyycPEGnj57yYjhvdNkrLoQIu3YVGnCsSNbsbTMprP8w5l5hBDi36JTp05s2rSJxYsX079//4wOx2A9efqUiIjIxDdMArmjno56dG8FSvHbvDU8fPRU73ahr96wxG0z9wLv0/+LDpKkCyGEEEL8B8nDpOkoaxYLvv7KmTV/7WbGrBU0qF+dklZFKFQwL5lMTQgKesjdeyEcOnyKHJbZGPZVT/LmjX/GDSFExrp84WC8y61LW8nddCGEEGlCEvV0ljmzOf37duDqtdsc97mA19Gz2pkjNBooUbwwbZzssa1ug5FR/DOqCCGEEEKIfz9J1DNI+XIlKV+uJFFRUTx69IyIyEjy58uVrF/FFEIIIYQQ/16SFWYwIyMj8ufPndFhCCGEEEIIAyMPkwohhBBCCGGAJFEXQgghhBDCAEmiLoQQQgghhAGSRF0IIYQQQggDJIm6EEIIIYQQBkgSdSGEEEIIIQyQJOpCCCGEEEIYIJlHPQNFRkZy/cYdbt2+x4MHT8ic2ZyCBfJiY1OKfHlzZXTQF0N5AAAgAElEQVR4QgghhBAiA0minkGO+1xg7z5vXr1+i5GREQUK5CE45BFnz11l199HKGNdnLat7eXHkIQQQggh/qMkUU9n79+H4b52F1eu3qaiTWmaNa1NgQJ5MDKKHoX0+s1brl8PYNt2T377fTXOPZywqVAqg6MWQgghhBDpTcaop7MNm/Zx0+8uPXs40ad3WwoVyqdN0gGyZLagWtXyjBr5BSVLFmXl6u3c9g/MwIiFEEIIIURGkEQ9HZ0+c5nzF67TtrU9n1Upm+C2WTJb8MXnbcmdOwdr/tpNZGRksup69+49+QpXZebsRTrLe/Qeyvad+5Mde4wLF69Qr1HHFJcHqG/fEX//u6naR3yWr9zAD+Omx7tu1pzFqdq3y2BXdu/x5KafP/YOXVO1r9iCgx/wed9vKV+pMZWrN+PbkZN4/vxlmu1fCCGEEJ8uSdTT0Z593pQqWZRadpWTtL2xsTE9ezjx4kUo3sfPJ7s+ExMTlq/ayI2bt5NdVh+bCmVYsXRWmu0vvcz6LXWJ+sfw7t17OnQdQL26tvie28dxr22YmprgMsg1o0MTQgghhAGQRD2d3L13n+fPQ2lsXzNZ5QoVzItViSJcuuSX7DpNTIz57psBfDtyIkqpOOttqjThxYtQAF68CMWmShMg+s50/4GjaN3uCyZOnqNTxj/gHv0HjdJuN/irMXRz/pKGTToz6MsxRERExKnn7LlLNGrahToN2jNy9GSddTt2HaC+fUdq1HbC+fOvefjoCRB9B9t1zBSaNO/O9h263wC8eBFKn37fUrtBO+o0aM/6jTvj1Ol19CT1GnUkJOQhXboPJiwsHHuHrly5elN7dzyGvUNXbvr5JxiPPr/OWIBd3TbY1mrFmB+nERUVpe3bOXOX0qJ1bxo26cxhL584ZXfuPkiZ0iVx6dcDExMTsmS24OcJI7G2tiI09JX27n3/gaPo2HVgnLv5u/d44jLYVdtfEyfPoW3H/tRr1JEff5qhPeY2VZrw2+9Lad2+L/XtO7Juw45E+18IIYQQGU8S9XTy8GF0AlS8WMFkly1cOB+PHj1Ndrl3797Ty7kDERGRuC1fn6yyfrcC+GvNfMb9MDzB7S5cvIrbkpl47PuLwKBgPA8d11mvlMJlkCtjXL/i2JEtNLavy/Ub0Xf4A4NCmDBpNuvc53Pq+E7q1anBxJ//+WDw/n0YB/eupU1rB519Xr9xG/tGdTh+ZCvbt7jx/dhfCQsL164/eeoCo3+YytrV8yhYMB/r1y7A1DQTnvvXUaG8td62JBbPh7Zs28Op0xfw8tzECe/tBAXdZ9366CQ4KkpRsGA+/t6xknFjh/PzL7/HKX/p8nVq2VXVWWZiYsIvk0aRLVtWIPo4jHH9ik3rFuqNI8aFi1fZsmERhw+u56LvNTZt+Vu7Liw8gh1b3Ni0biE/T/md/7F373E1348fwF+nm+4pki6Uyl2lKbeKyG2u2zTmbuPrNrk0WzYMufzcQi6Zy8xt7mZGG0OZhaIUExGhiSKS7nXO+fz+6Ot81+q4bNXnU72ej4fHnM/1dc7C67zP+3w+yX8+fOvnS0RERJWLV32pJC+yclCrlg50dWu99b71zM2Qm1cAhUIJTc23e2+loaGBVSvm4j3fsXi3p/cb79exgxsM9PVeu10nr7bQ19MFADg7tcDDR2kl1t+79yeUSiV6dO8EAHi3pzfqmRdfcvLs71FI/vMhho2aAgDIzs6BsbGRat/u3bzKPGdbdxcIghJrQ7bhzp37yM7OQXZODgDgytV4bP52N8JP7kMDm7d7U/S6PH/38/FwnP09Cj37DAcApDxMhYNDQwCAhoYM3Xw8AQBtXJ3w6G+vC4BSn3IMHz0V168nIis7G9u/XQVzczM42NvC3r7hG+X/4L1eqi8mfziwN87+HgXfD3oDgOq/9erVhWdHN5y/EAOlUvFWz5eIiIgqF4t6JTE2MkBBQSGysnNhZKj/Vvs+Sc+AtrbWW5f0l5o3c8THowZh5qwlJa4wI9PQUJXFwqKiEvvIZLI3Oram5v9+hGQyWekpNjIZBJRc9nIbQRAwfOgHWLl8TpnHVpdh6YoNuHz5D4wc4Yue3TvhVFiE6pgPUlLR592uWL9hO0LWLipzfw2ZRomcL0fjX5fn77S1tLBh3WIMfP/dMtdr/fe1KfN1AeDUqhl+/OkEJk0YCQDYtS0YAODR+QNVYf7ra/D33EWFJf+fKRRK1e/lcgX++vIp/7pOUbzubZ8vERERVS5Ofakk9eoVjyKnpJQeWX2dlJTHsKj37+5U6j/1P0i6m4w/riWoljWya4CI85cAAD8dPQmlsnSZ/LfsbG2gpamJE7/+BqB4FPpJevE0Ho+O7gg/cx4PUh4BALbvPIg167977THjrlzHkMED0Ofdrnj6NAOPH6er1vV51wcbQ5bg7r0/sXHz96rl2lpayMnNAwA0atQA584VP+9r127i9p17/yhPF++O+H7PYRQUFEKpVOKzLxbg94iLb/rSoE/vrrh95x6+2bQLhYVFKCwswtIVxdN0WrYoPUXHxsYSD1JSkfIwFUqlEkdDT5VYv3f/TygsLPrvtfp/ROdO7VXrtu86CAC4d/8Bfv/9Ijw6uv3j15+IiIgqB4t6JWnYoD5MaxsjMurqW+33+MkzJN19AJfXXM7xdXR0tLFqxdd49Oixatmcr6Zi8ZJ1aOc5AHl5+dDQeLNR9Lchk8mw+Ztl+L9l69Gpqy/O/h4JZ6fmAIpLfOC8zzBoyCS09xqAn38JUzs6/VcBMyZg9dpv0aHTe9h34BisrCxKrNfR0cZ3m4MQsnEHIv5byD8ePQgdvAYgMuoyxnz8Ea5dvwW39n2wccv3cHFu8Y/y+H7QG+3auqK95wB4eH8AmUyGtu6t3/i10dPVxQ/7NuHipTg4vdMdrVy74datJOzZua7MTxNq1dLBVwGT0e+9T+DTcwga2TUosd6jozv6vf8x2nsOQPt2rnh/QC/VOot6ddGl+2B8+NEEBM77DDbWlv/49SciIqLKIRPK+ky+EoSFhcHHxweurq64fPmyGBEqXXRMPPbuP46xn3yAZk0bvdE+a9fvxvPMbHwVMAaampoVnJCqqv9MDMD7A3qhd68upda1dPHB+bM/wsSE88+JiOif8/X1xaFDh7B582aMHTtW7DiS9fTZM8jlb3f/G3U4ol6J3Nq0xDuuzXHoh1N4lvH6m9qcOh2JBylpGD60D0s6ERERUQ3DL5NWsg8H9sD3e0KxPOg79OndCR4dXPH3WQ7Pn2dhz75fkPznIwwb0geN7KzFCUtVxuYNS9Wui79yuhKTEBERUXlhUa9k2tpaGD1yAC5EXsGJX8/h+IlzsLauB2vLesjOycXDh4+R9vgpGjvaYprfcFhY1BE7MhERERGJgEVdJB3au6CteyvcvHUfd5L+RFraU+jr66LNOy3RsqUD6pn/u6u8EBEREVHVxqIuIk1NTbRobo8Wze3FjkJEREREEsMvkxIRERERSRCLOhERERGRBLGoExERERFJEIs6EREREZEEsagTEREREUkQizoRERERkQSxqBMRERERSRCLOhERERGRBLGoExERERFJEIs6EREREZEEsagTEREREUkQizoRERERkQSxqBMRERERSRCLOhERERGRBLGoExERERFJEIs6EREREZEEsagTEREREUkQizoRERERkQSxqBMRERERSRCLOhERERGRBLGoExERERFJEIs6EREREZEEsagTEREREUkQizoRERERkQSxqBMRERERSZCW2AFqquzsbFy8eBG3b99GamoqlEql2JGIiIioAujr66Nhw4Zo0aIFnJ2dxY5DVQiLeiX77bff8PXXX+Ps2bNiRyEiIqJKZm5ujiFDhmDu3LkwMzMTOw5JHIt6JcnLy8P48eOxc+dOmJiYYMSIEWjfvj3atWuHNm3aiB2PiIiIKsizZ89w4cIFREVF4fTp01izZg127dqFffv2oVu3bmLHIwnjHPVK8OjRI3To0AE7d+7EiBEjkJiYiB07dmDSpEks6URERNWcmZkZ+vTpg8DAQJw7dw5Hjx6FiYkJevXqhbVr14odjySMRb2CKZVKjBo1ComJiTh79ix27NgBc3NzsWMRERGRSPr27Yvr16/jk08+wbRp03DixAmxI5FEsahXsE2bNuHkyZNYvXo1vLy8xI5DREREEqCrq4uQkBA0bdoUo0aNQmZmptiRSIJY1CtQVlYW5s6di169euE///mP2HGIiIhIQrS0tLBv3z6kpaVh5cqVYschCWJRr0ChoaF4/PgxvvjiC7GjEBERkQQ5OTmhd+/e2LJlCwRBEDsOSQyLegU6ceIENDQ00KFDB7GjEBERkUR17NgRDx8+xNWrV8WOQhLDol6Bbty4gdatW0NXV1fsKERERCRRHTt2BFDcG4j+ikW9AqWmpqr+8BERERGVpX379tDQ0MDz58/FjkISwxseVaD8/HzY2NiIHYOIiIje0MWLF6GnpwdTU1PUrl0bhoaGJdYLgoCsrCzExcXhzz//RNOmTdGsWbNS270NPT091KtXDxkZGf82PlUzLOpEREREKB5ga9u2rdr1giCgoKAAYWFhCAgIwKNHj+Ds7Izg4GDewJAqBKe+EBEREQHIy8t75fqcnBxcvXoVtWvXho2NDXJychAbG4vo6OhKSkg1DUfUiYiIiABoa2uXuVwQBGRmZmLXrl04dOgQfH198dVXX0FHRwexsbGwtrau5KRUU7CoExEREaF4rvjfCYKA3NxcbN++HWvWrMHDhw+RmZmJsWPHIiAgAImJibxwBFUYTn0hIiIiAqCpqVni8cuSvmvXLqxZswb379+HXC7HzZs3sX//ftSqVQuDBg2CmZmZSImpuuOIOhEREdHfKJVK5Obm4ttvv0VQUBAePnyoWle7dm1069YNTZs2hZGRkYgpqbpjUSciIiL6C3UlXSaTwcTEBOPGjcN//vMfjqRThePUFyIiIqK/kMvlakv6f/7zH4wfPx716tUTOSXVBCzqRERERP9VWFiI7du3qy3pfn5+sLCwgEwmEzkp1QSc+kJERET0XzExMfj666/x5MkTAMUlXV9fH35+fpg8eTJMTU1LlfS8vLwyrxhD9G9xRJ2IiIjov3777Tekp6errgCjr6+PSZMmqUq6hkbp6vTixYvKjkk1BIs6ERER0X+dPn0aCoUCcrkcBgYGmDx5Mvz9/dWWdADIzMys5JRUU3DqSxXj5uaGmJgYtevv3r0LOzu7ygtERERUTQiCgMTERHTo0AGdO3eGh4cHOnXqBENDw1fOSc/Ly6vElFSTsKhXMUePHkVBQQEAICgoCEePHsWZM2dU621sbERKRkREVLXJZDLcuXMHMplM9assCoUCOTk5KCgogJ6eHlxcXCo5KdUULOpVjKWlper3JiYm0NLS4gg6ERFROfn73UnVbWNsbFwJaaim4xz1aiYnJwfLly9Hy5YtoaurC0dHR+zYsaPENnFxcejevTtMTExKjBp069YNAHDmzBm4u7tDX18fjRo1wsqVKyEIghhPh4iIiKjGYlGvZu7cuYMzZ85gzZo1uH79OkaMGIFPPvkEd+7cAQAUFBSgZ8+ecHJyQlpaGm7fvo3GjRtj7ty5CAkJQWFhIQYMGIB+/frhwYMH2LVrF5RKJa8XS0RERFTJOPWlmnF2dkZoaKjq8Zw5cxAcHIywsDA4ODggMTERjx8/xvjx46GrqwsHBwf069cP8fHxaNKkCTIzM5GdnQ1HR0eYmZnBw8MDHh4eIj4jIiIiopqJI+rVUEpKCpYuXYq+ffuiadOmyMrKwuPHjwEATZo0QfPmzbF582YoFAo8fPgQR48eRbt27QAUz3tfvXo1xo4dix49emDfvn1QKBRiPh0iIiKiGolFvZr59ddf0aRJEyQlJeGrr77CtWvXYGtrq5pjrqOjg+nTp+PIkSNwdHREjx49MGrUKPj7+6uO4efnh3v37qF379744osv4OnpiZycHLGeEhEREVGNxKkv1cyyZcvQt29fbNy4scz1giAgICAAv/32G5ycnNQep169epg2bRqGDx8OKysrnDx5Eu+9915FxSYiIiKiv+GIejVjZmaGp0+fQi6Xo6ioCEuWLMH9+/dLbCMIAsLCwpCSkoLU1FRkZWWp1l24cAH9+vVDREQEnj17hvDwcCgUCjg4OFT2UyEiIiKq0VjUq5mlS5eisLAQNjY2cHd3h7a2Nnx8fFTrZTIZxowZg1mzZqFBgwawtLSEsbExrKyssG/fPjg5OcHFxQXDhg2DtbU1AgMDsWvXrleOvhMRERFR+ePUlyps4cKFWLhwYYlljRo1wtmzZ0ss++yzz1S/P3nyJI4ePYqHDx+qbtaQnZ2NiRMnYunSpRg8eHCZxyUiIiKiysUR9RomKSkJOTk5SE5OVi27ffs2YmJi0KdPHxGTEREREdFfcUS9hhkzZgySk5PRv39/ZGdnQ1dXFzY2Nvj888/x8ccfix2PiIiIiP6LRb2G0dLSwqJFi7Bo0SKxoxARERHRK3DqCxERERGRBLGoExERERFJEIs6EREREZEEsagTEREREUkQizoRERERkQSxqBMRERERSRCLOhERERGRBLGoExERERFJEIs6EREREZEEsagTEREREUkQizoRERERkQSxqBMRERERSRCLOhERERGRBLGoExERERFJkJbYAeifuX37Npo3bw4HBwfVsnHjxsHf3x+dOnXC5MmTMWjQoHI7n5aWFrKzs6Grq1ti+cKFC5GdnY0lS5bg+PHjmDlzJuLi4srtvFQ9FRYWIioqCjdu3MCjR48gCILYkSqFtrY2GjZsCBcXFzg7O//j42RkZOD8+fNITEzE8+fPyzGhtBkaGqJRo0bo0KEDrKysxI5DRFThWNSrMAsLCyQkJJRavnXr1gr5R0wmk71yfZcuXbBv375yPy9VH/fv34e/vz+uX78OV1dXuLu7w8vLCxoaNePDvfz8fFy8eBF79+7FzZs3MWDAACxatKjUG2B1wsLCMHPmTMjlcnh6esLNzQ2tW7eu4NTS8eTJE5w/fx5BQUF4/vw5vvzyS4wYMULsWEREFYZFvRqaMGECZsyYgV69eqFbt27o3r07oqOjcfPmTQwbNgwBAQHIz8/H8OHD8ejRIyiVSixduhSdOnVCcnIyPv30U9y/fx+GhobYtGkTWrVqBZlMhk2bNmH9+vXIycnBtm3b4OPjU+K8ly5dwowZMxAZGQkAWLNmDXbv3g1BENCzZ08EBgaWed62bduWmeX+/fuYPHkynj17hlq1amHdunVo0aIFFi5ciMePHyM9PR1//vknzM3NcejQode+kSBxrVy5Et999x02bdqEDh06iB1HNL169VL9fuPGjXB3d8fatWvh7e2tdp+srCyMGzcOcrkcR44cgaWlZSUklaYPP/wQAJCZmYlZs2Zhx44d2LVrFywsLERORkRU/ljUq7C0tDQ0a9YMAFCrVi1cuXKlzO0yMzNx4MABPHnyBLa2tvj8889x6tQp5OXl4dy5c8jNzYVSqQQADBo0CCNHjsSkSZOQlpaG2rVrAwAEQYCenh5u3LiBrVu3YtmyZaWK+l+dOHEC0dHROH/+PDQ0NODr64tz584hIyOj1HnVZRk5ciRCQkLQsmVL/PHHH5g6dSpOnjwJAIiPj0doaCh0dXXh5OSEyMjIGl3+pCwrKwvvv/8++vTpgz/++EPsOJIyfvx4+Pr6YurUqThy5AiCgoJKfboQExODiRMnYunSpejSpYtISaXHxMQE69atQ1xcHD744AMEBASgf//+YsciIipXNePz5mrq5dSXhIQEtSUdADp16gQAMDc3h7a2Np4/f4727dsjJSUF48ePR0JCAgwNDZGamor4+HhMnDhRdfxatWqpjjN8+HDIZDK4urri0aNHr8x2+PBhJCcn45NPPsHo0aORk5OD9PT0Ms9b1rK0tDRcuXIFy5cvx+jRoxEUFAQtrf+9r3R3d1dNF7C3t39tHhLPhg0b4O3tjenTp4sdRZLq1KmDnTt3IjY2Fjdu3CixTqFQYMaMGdiwYQNLuhqtW7fGgQMHsGDBAuTl5Ykdh4ioXHFEvYaRyWRQKpWoW7cuoqOjcerUKUycOBEfffQRBg0aBE1NzddOIdHQ0FCNequjUCgwYMCAMsvZ3887ffr0MrPIZDJs3br1tfOXXz4nkp4nT57gyJEj+P3338WOImkymQzbt2/HhAkT8Msvv6iWh4aGwtPTE23atBExnfRZWVnBz88PS5cuxbx588SOQ0RUbjiiXkMlJSXhyZMn6NWrF+bPn49ff/0V1tbWsLOzw5YtWwAUX1nidSPVMpmszCt29OvXDyEhIXj8+DGA4i8Rqjuvuiz29vYIDg4GABQVFXHUvAoKDg7Gjh07Sr3Zevz4MRo2bFhiWZs2bXD37l0UFhZCJpMhIiJCte7kyZNq30C2adMGUVFRAABXV1fY2trCxsYGffr0wd27d8vc5969exg2bFiJqyatWrUKjo6OcHR0hL29PQwMDFTPwcnJCV5eXkhKSgJQ/GbTxMREtf3x48cBAOHh4ejUqRNGjx6tOm5kZCRcXFzQuHFjDBw4EPn5+WVmsrW1xXvvvYdz586plu3Zswdz584tte348eNVfzaA4qlmAwYMAAAcPHgQRkZGKCgoUK2fMWMG3N3dSx1HLpejTp06AIqvxKOlpQVHR0c0bNgQkyZNUjtCXdbzTEpKQrdu3eDu7o4vv/wSQPEb9lGjRsHZ2RlDhgxBbm6uavnEiRPh6OiIjh07Ijk5GQCwadMmODg4YNu2barjbtmyBY6OjmjcuDEWLFhQZh6geKpcfHw8CgsL1W5DRFTVsKhXYampqaqi4OjoiGnTpr3xvikpKRgyZAg8PT2xcOFCVRnYv38/du/eDScnJ/Tr109VTNR55513sHPnTqSnp5dY3r9/f0yZMgVdu3ZF27ZtMXXqVOTl5ZV5XnVZDh48iJMnT8LFxQWdOnUqUdyoakhPTy9Rhl9KTk4u9TNz48YNKBQKVTlctWqVal1QUJDaov7gwQPV3Pe7d+/C09MTPXr0QExMDHr06FHmG8nExETEx8fjwYMHqmVFRUWwsbGBjY0NlEolTE1Ncf/+faxYsQLW1tbIzMzE+++/DwC4efNmie1flsNbt27h7t27OHv2rOq4P/30E3R1deHm5obw8HB8//33al+vMWPGqNbfu3cPXl5eJaZ8vXTz5k3Vl7aB4jc+0dHRAICrV68iJycHP//8s2r93r17ce/evTLPmZmZCQAoKCiAIAgYOnQoWrdujUOHDsHPz6/Mfc6fP4+bN28iNjZWtWzatGl48eIFWrVqha1bt+LatWv47rvvcPr0abi5ueHs2bOYM2cOgOIvFh88eBDe3t7IyMhAamoqgOL5+I8fPy7xZ3379u1wc3ODiYkJli9frnrzr+71++trT0RU5QkiOX36tABAcHV1FStChbOwsBCWLFkidgwiUaSmpgp+fn5lrrt06ZKgp6dXYpmenp6QmJgoZGZmCgYGBoKNjY1qXYMGDYRatWqVeax69eoJmzdvFgRBEExMTIRjx46pzq+joyMcOXKkzP3u3r0r6OjolFpeVFQkmJubCxcvXhT27NkjWFtbC4IgCEqlUjAwMBCePn0qLFu2THjnnXfKPO6yZcsEOzs71eOnT58KgiAIL168EKysrITAwMAy93upW7dugiAIwjfffCP88ssvZW7TuXNn4aOPPlI93rFjh2BlZSUIgiDMmTNHqFu3ruDt7S0IgiDEx8cLFhYWQt26dct8rpqamqp8L38vCIKwe/duQVtbW5DL5WVmmD59uuDk5KR63KJFC9Xfd05OTkJwcLDQp08fYcSIEYIgCEJsbKxQp04dQRAEwdraWggKChIEQRAyMzNLHLd9+/bCmDFjVI9fvn6JiYmCjo6O8ODBgzLzCIIg3Lp1S5gyZYra9URSVr9+fWHx4sVix3ilgQMHCgBUf+dS2dKfPhVS0x6Xyy+OqBNRhbhz506Zo+lvQhAEGBsbIzIyEidPnoS1tfVbfw/BwsICjRs3Rmho6Fvtt337dtStWxfu7u4wNzdHdnY2ioqKcPv2bSiVSpw5cwZpaWm4e/cuGjduDF9fX+Tk5Kg9npmZGTZu3Ij69etDR0cHH3zwwSvPr6OjA6D4E4Z/+vrZ2dnh9u3bkMvlWLRoEbp27frWxxgyZIgqx5uYNWsWFi1ahC+++ALZ2dno2bMnTExMVNNa7t+/rxq9f/r0KRQKBTw8PDB79mwoFAq1xzUzM8PHH3+Mli1bwtbWFvXr11e7baNGjVTnIyKqDljUiajCvJyT/HdlTWMRBAEaGhqq7z2MGTMGy5cvx8qVKzFjxgzVditXrkTHjh3h5eX12vPr6ekhLy8Pq1ateuN9Vq9ejVGjRgEAfHx8UKdOHdjb22P06NEwMDBAfn4+Ro4ciQkTJmDBggUIDw+Hr6/vK4+pq6uLli1boqio6LWXqMzPz4dCoYCurq7a1w9AiSk9giCUek1tbW1x7NgxXLhwAUOHDlUtHzlyJDp27IhPP/30lTmA4jsSZ2RkYNSoUa/d59q1a2jVqhUOHjyIzMxMWFhYIDAwEH/88QdsbW2xd+9eVcaioiLExMSgY8eO2LNnD9auXfvKHPr6+rCxsUFOTk6J6Up/V1RUVGPucktENQOv+kJEFaJBgwaIi4src52pqSnkcnmJgqlQKFC3bl1V0fLz80NwcDC0tbUxcOBA1XIrKyu0bt0aenp6ZR77r0Xt7t278PX1hb29/RvfwTMxMbFEsb1y5Qqio6Ph4OCAFi1awNnZGa1atYKzszOA4vsZLFu27JXHHDVqFEaNGoVx48Zh5cqV+Oijj9Rum5KSAk1NTVhZWSEuLg4uLi6ltjExMUFGRobq8Z9//gl9ff0S23z22Wf4+uuvUadOHWhqaqqW29rawplI0lsAACAASURBVNDQsNSVZP5ecNPT05Gfn4933nkHTZs2hYGBAVq0aFFmZqVSiXXr1iEpKQmampro2rUrpkyZgh07diA2NhZJSUkwNTXFTz/9BKD4DcCOHTugo6ODzMxM/PLLL6/8js369esBFI+Y7969W/Vl1b+LjY195Yg7EVFVwxF1IqoQlpaWuH37dpnrbG1toaOjg3Xr1gEAvv32W+jp6cHY2FhV3LW1tWFpaQl7e3sA/xuF/+ijjxASEoKgoKAyj/1yuxkzZiArKwvjx4/HgAEDEBISgpCQkFdmzs/Ph1wuR4MGDVTL4uPj4e3tjaNHj0JTUxMtW7bErFmzVFdvOX78OGxsbNQec+TIkXj27BmA4iujaGtrq9329u3bqjcU3t7eat/oDBw4EJGRkcjIyEBBQQG2b98OT0/PEtu8//77uHPnDiZPnlxitH3BggUICQnBJ598ojZHYWEhfHx80Lx5cxgYGOCrr75CSEiI2hF1DQ0N1RdqTU1NYWdnh0ePHiE7OxuZmZnw9vaGv78/2rZtCwBo0qSJ6s1NfHy82jutZmZmYvTo0VAoFCgsLERmZqbaN2hAcVF3c3NTu56IqKrhiDoRVQgtLS20aNECUVFRaNeuXYl1mpqa+L//+z8EBATgiy++AADVZUH/ateuXSVuuvUmPvzwQ8jlcpiYmODkyZOqu+v+lZeXF2JjY1FUVAQjIyMsX74cEyZMwL1790pcSjIvLw+9e/eGTCZTFWKZTIZr167ByspK9Tx/++03AICNjQ3S09NVx42NjUVmZiaaNWsGhUIBmUyGCxcuqM2+ZcsWfPjhhwAAZ2dnnD59Grm5uaVGy0eOHKma966hoQEzMzOsXLmy1PFCQ0PRuXNnnDhx4rWv28v7IxgaGiI/Px/NmjUrcanIv6pbty6ysrIgl8thbGyM5ORkzJo1C/b29jAyMkJhYSGioqJw7tw5fPDBB6py/XK++4EDB+Dj44P169dDQ0MDR44cQWxsLDp16oS8vDzExMTg9OnTiIqKQnR0NKysrJCbm4umTZuqvRKNIAjYtGkTwsPDX/tciYiqCpkg0oS+sLAw+Pj4wNXVFZcvXxYjQoWrX78+pk+fjoCAALGjEIkiPj4eI0aMQExMTJnz0vPy8hAfHw8XF5dXjjSLKT8/H5GRkWjevDksLCxUy+VyOa5duwZnZ+fX3pSrsLAQ169fh4uLi9rLTCYlJaF37964fv266nirV69GamoqlixZUuY+T548QWpqKpycnP7hsytfubm5uHXrVonXJCUlBbdv30aHDh1UX5QFikfLExIS4O7u/trX79mzZ8jMzESjRo3UbrNlyxZERESUuAY7UVViaWmJKVOmqJ3aJQW+vr44dOgQNm/ejLFjx4odR7KePnsGuVz9l+TfBkfUiajCtGzZEs7Ozti4cSMmTJhQar2enp7kpyro6urC29u71HItLa03nveuo6Pz2m2nTJmCFStWlCitn376KVxcXDB27Fg4OjqW2sfc3Bzm5uZvlKEy6Ovrl3qe1tbWsLa2LrWtiYlJqU9a1DEzM4OZmZna9VlZWVi6dCnvgEtE1Q7nqBNRhdq2bRvOnj2Lq1evih1Fsr777jv06NEDffv2LbFcW1sbx48fx6xZs/DixQuR0knf9OnTsX//fn6RlIiqHRZ1IqpwO3fuRHBwMJYvXy52FEl5/vw5RowYAU1NTUyZMqXMbRo2bIiVK1fivffeQ1hYWCUnlLarV6+iW7du8Pf3h6urq9hxiIjKHae+EFGF09TUxLfffovw8HB88cUXaNSoERo3bozGjRvD1tZW7HiV6saNG7h16xaSkpKQlpaG+fPnq65so461tTXCwsKwadMmnD17Fvb29qrXr27dupWUXHzZ2dlISEhAYmIi7ty5Ax0dHRw5cgQGBgZiRyMiqhAs6kRUabp06YIuXbogKSkJO3fuxNatW/Ho0aMac5MabW1tNGzYEC4uLvj444/LvCLNq4wbNw4AcOrUKRw4cABJSUl4/vx5RUSVJENDQzRq1Aje3t6YPXu22HGIiCocizoRVTp7e3vMnTtX7BhVVrdu3dCtWzexYxARUQXjHHUiIiIiIgliUSciIiIikiAWdSIiIiIiCWJRJyIiIiKSIBZ1IiIiIiIJYlEnIiIiIpIgFnUiIiIiIgliUSciIiIikiAWdSIiIiIiCWJRJyIiIiKSIBZ1IiIiIiIJ0hI7ABHVPC9evEBUVBRu3ryJ9PR0seNUGj09PdjZ2aFNmzZwdHQUOw4REUkcizoRVZqoqCisWrUK5ubm8PLywrvvvgsHBwexY1WajIwMXLx4Ebt27cLNmzfh7e2N8ePHix2LiIgkikWdiCpcYWEhZsyYAZlMhm3btkFXV1fsSKIwNTVFz5490bNnTwDA/v374ePjg40bN3KEnYiISuEc9Spu2LBhaNq0aaWdr1u3bjh+/Hip5REREWjfvj2A4lFDCwsLJCcnV1oukq6kpCR06dIFAwYMQHBwcI0t6WUZNGgQdu7ciQkTJmDTpk1ixyEiIolhUa/C8vLyEB0djYYNGyImJqbSziuTyV653tTUFKdOnUKDBg0qKRFJ2Zw5c/D111/Dx8dH7CiSZGVlhR9++AHr16/H8+fPxY5DREQSwqJehR07dgzt27dHz549sXfvXtXyyZMnY8WKFarHrVu3RnR0NAAgMDAQbm5u6NChA9asWaN2WX5+Pvz8/NCyZUu0adMG+/btUx3vwoULcHNzQ/369bF06dIys7m6uqKgoAAAEB4eDi8vL3h4eGDQoEHIysp6qyx5eXkYP348PDw80L59exw+fBhA8Sh+r169MGnSJPTp0wdt2rRBSkrKv39hqdz8/vvv0NPTU031oLIZGxtj1apVmDdvnthRiIhIQljUq7C9e/fi3XffRZ8+fbBv3z4IgvDK7bOyshAUFITIyEicP38eH330UZnLAGDevHlIT0/H1atXceHCBXh7e6uOk5ycjHPnzuHcuXOYP38+lEql2nM+fvwYX331FUJDQ3Hu3Dl4eXlhzZo1b5UlMDAQ7u7uOHfuHMLCwjB79mzVm4CrV68iICAAoaGh6NChA3bs2PEvX1UqT5s3b0ZwcHCp5bt27cLgwYNVjxUKBaysrAAAR44cgaGhoer/MQAEBATAzc2tzHO0bt0af/zxB+RyObS1teHo6IiGDRti0qRJyMvLK3Of8PBwdOrUCaNHj1Yt++ijj+Do6AhHR0dYWlqiT58+AIDg4GC0atUKnTt3RlJSEgAgOjoaJiYmqu1fTgfbtGkTHBwcsG3bthLPbdKkSXB0dETHjh3VTgnr2rUrFAoFMjIyylxPREQ1D4t6FZWVlYVff/0VPXv2RPPmzaGtrY3z58+/ch8jIyP07NkT/fr1w7Fjx2Bubl7mMgD48ccf4e/vD01NTejo6MDCwkJ1nEGDBqFWrVpwcHCAlpbWKz+uDwsLQ0ZGBqZMmYLRo0fj7NmzyM/Pf6sshw8fxqlTpzB69GhMmjQJZmZmqkv6NWzYELa2tgAABwcHPHr06F+9rlR+MjIyYG9vDwMDg1LrYmNjcf36ddXj7OxsPH36FABw9+5d5Obm4uDBg6r1Bw8eRGJiYpnnuX37tupTGqVSieHDh6Nt27bYu3ev2iuqXLt2DUlJSSX+zBgaGsLGxgY2NjbIzc2FhoYGEhMTMX/+fDg7O+Phw4cYPnw4gOJPswCotrezswMA1eUmQ0NDVcddtWoVDh48CG9vbzx//hwPHjxQ+5qNGTMG+/fvV7ueiIhqFl71pYr68ccfAQBdunQBUFzc9+7dCw8PD8hkMrWj6/v370dsbCxWrFiBb7/9Fj/++GOZyxQKBbS0Xv/joaGh8coRdYVCgaZNm5YYYfwnWQICAuDq6lpi/7t375Z4LJPJXpmFKteFCxdUb6LeVp06dbB27VoMGzYMt2/fRmFh4RvtJ5PJVNNHwsLC0LNnT2zdurXUz7Kfnx8yMzOxfft21bItW7YAAG7cuIEuXbpgx44dCAkJgZ2dHXbv3o2MjAzY2toiPz8faWlp8PLyUhX2l4KCgnDlypUSy4KDg+Hv74+ZM2ciKysLhoaGavM3bdoU//d//8dLNhIREQCOqFdZe/fuxapVqxAXF4e4uDiEhobiwIEDUCgUsLS0xL179wAUl9mXH7Xn5uYiNjYWrq6u2LhxI8LCwpCTk1NqmSAI6NOnD1avXg2lUgmFQoGbN2++Mo+6NwddunRBREQEoqKiAABPnz5FTk7OW2Xp378/Fi1aBLlcDgC4f/9+Ob6SVFFu3br1j6+RbmlpieTkZMjlcqxYsQJeXl5vfYyuXbtCR0cH4eHhb7XfV199hd69e8PU1BTGxsZIS0tDUVER0tPTkZeXh3v37iE9PR0xMTFwdHTEsGHDkJOTo/Z4Lz/98fDwwKxZs175ZlJPTw+ZmZlvlZeIiKovjqhXQRkZGYiIiMDu3btVy9zd3WFmZoYzZ85g1KhR6N+/P/r06YPGjRujXbt2AIpL8oIFC5CamgqFQoFVq1bh2bNnpZbJZDIsWLAAfn5+aNGiBQwNDTFu3LhXXgbS0dERKSkpOHHiRIkvDlpZWeHAgQOYPHkylEoljIyMsH79ehgbG79Vls8++wzOzs4wMjKCj48PFi9eXHEvMJUbdXPE/37loL+/yVMoFHBycsLu3bsRHh6Ob775RjWdZNSoUUhMTISrqyvWr1//yvNramrixYsXGD16NG7duoXWrVsjJCTklfv8+uuvSEhIAACMHDkSS5YsgaOjI+zs7FCrVi0UFBRg+PDh6NixI/T09PDZZ5+hVq1a2Lp1a5nHKyoqwpUrV+Dh4YHvvvsOdnZ28Pf3V3t+da8ZERHVPCzqVZCpqWmZo25/nfOr7nKNP/zwwxstMzIyKnO6yqlTp0o8/uv89L/OvX05+g0Uj2xeunTpH2fR19fHhg0bSi339PREZGSk6vG0adNKbUPisbOzQ1xcXJlXfKlTp45qXjkA3LlzBzo6OgD+V+IDAwMxevRo6OrqwsjISLVtq1atYGBggMaNG7/y/JmZmcjNzYWrqysePXoEfX39114y9M8//4RSqVRtZ2JigpiYGCQkJMDFxQUWFhZo3rw5XFxcVPtcu3YNZ86cUXtMbW1tbNmyBQYGBsjKykJoaKjaop6UlARTU9NXZiQiopqDU1+IqEK0adMGcXFxZa57//33kZaWhtjYWADAggUL0KxZMwD/G11v164dUlNTMWrUqBIj8J9//jlCQkJe+cZMLpejR48esLW1hb29PSZPnoyQkBB8+eWXr8x85syZEm8KgOKpVt7e3li5ciUsLS2ho6OD2bNnIz8/HwAQFRWFJk2aqD1m06ZNsXz5cgBAfHw8LC0t1W4bGxurunEYERERR9SJqEI0aNAASUlJePDgAWxsbEqsa9asGQYNGoQOHTpAJpNBR0enxKcjLx07dgzt2rUr9QVNdV5Or8rPz4e9vT1+//33MreztLTEs2fPIJfLYWRkhBs3bsDGxgaJiYklivqDBw/QvXt36OjooLCwEOHh4VAqlQgLC8OGDRugUChgaGiIX375BXfv3oWzs7OqwFtbWyMlJQX79++Hj48PNm7cCJlMhkOHDqnNv2bNGuzcufONnisREVV/LOpEVGH8/PwwduxY1XXG/2r79u1YvXo17t+/DxcXF9Wo+bRp01Sj5R4eHgCKR+fVfckyOztb9fs3veqPust4BgYGIjAwUPXYxsYGd+7cQXx8PNq2bQt9fX0AwPnz55GdnY179+6hVatWAIC6deuWmM7zUpMmTRAfH48bN27A3d0dGhplf5C5Y8cOmJqaomHDhm/0HIiIqPrj1BciqjDDhw9Henp6md89AIq/b9G6detSXy6VEnNzc3h7e6tK+kuGhoaqkv46xsbGaNeundqSnpmZCX9/f6xevfpf5yUiouqDI+pEVKHCwsLQt29fGBkZoXv37mLHkZzU1FSMHDkS+/btU904iYiICOCIOhFVMGNjY/zyyy9YtGgR/Pz8VHO4qfimX15eXli4cCF8fHzEjkNERBLDEXUiqnAGBgY4c+YMDh48iMGDB8Pe3h5ubm5o3779P74pUlX04sULnDt3DlFRUYiLi8M777yDy5cvl7rSDBEREcCiTkSVyNfXF76+voiOjsaBAwdw+PBh1Z07awJ9fX00atQInp6emDdvnthxiIhI4ljUiajSubm5wc3NTewYREREksY56kREREREEsSiTkREREQkQSzqREREREQSxKJORERERCRBLOpERERERBLEok5EREREJEEs6kREREREEsSiTkREREQkQSzqREREREQSxKJORERERCRBLOpERERERBLEok5EREREJEEs6kREREREEsSiTkREREQkQSzqREREREQSxKJORERERCRBLOpERERERBLEok5EREREJEEs6kREREREEsSiTkREREQkQSzqREREREQSxKJORERERCRBLOpERERERBLEok5EREREJEEs6kREREREEsSiTkREREQkQSzqFah27dq4c+eO2DGIiIhIwvLy8pCamgpLS0uxo5DEsKhXIFtbW8TFxYkdg4iIiCQsJiYGANCgQQORk5DUsKhXoC5duuDKlStQKpViRyEiIiKJunz5MnR0dODu7i52FJIYFvUK1LdvXxQWFmL79u1iRyEiIiIJUigU2Lx5M7p16wZjY2Ox45DEsKhXoFatWmHAgAHw9/fH8+fPxY5DREREEhMcHIxr167h888/FzsKSRCLegVbvHgx8vPzMWPGDLGjEBERkYSkpqZi9uzZGDhwILy9vcWOQxLEol7BWrRogR07duC7777DkiVLxI5DREREEnD//n289957aNy4MbZu3Sp2HJIoFvVK8OGHH+KHH37AggUL4OHhgfv374sdiYiIiESydetWODk5QSaTISwsjHPTSS0tsQPUFAMGDEBUVBQmT54MZ2dndO/eHY0bN0bjxo1hZ2cHDQ2+ZyIiIqqOcnJykJCQgMTERMTFxeGPP/7AF198gblz54odjSSORb0StWrVCmfOnEFYWBiOHz+O06dPczoMERFRDWBqaorOnTtj6NChGDhwIKytrcWORFUAi7oIunbtiq5duwIAcnNzERMTA4VCIXIqIiIiqghmZmZwdnYWOwZVQSzqItPX14eXl5fYMYiIiIhIYjgxmoiIiIhIgljUiYiIiIgkiEWdiIiIiEiCWNSJiIiIiCSIRZ2IiIiISIJY1ImIiIiIJIhFnYiIiIhIgljUiYiIiIgkiEWdiIiIiEiCWNSJiIiIiCSIRZ2IiIiISIJY1ImIiIiIJIhFnYiIiIhIgljUiYiIiIgkiEWdiIiIiEiCWNSJiIiIiCSIRZ2IiIiISIJY1ImIiIiIJIhFnYiIiIhIgljUiYiIiIgkiEWdiIiIiEiCWNSJiIiIiCSIRZ2IiIiISIJY1ImIiIiIJIhFnYiIiIhIgljUiYiIiIgkiEWdiIiIiEiCWNSJiIiIiCSIRZ2IiIiISIJY1ImIiIiIJIhFnYiIiIhIgljUiYiIiIgkiEWdiIiIiEiCWNSJiIiIiCSIRZ2IiIiISIJY1ImIiIiIJIhFnYiIiIhIgljUiYiIiIgkSEvsADVRQkICUlNTxY5BREREFUAmk6F169YwMTEROwpVcSzqlSQ9PR2LFy/Gnj17WNKJiIhqgNatW+PTTz/F2LFjxY5CVRSLegV7/vw5VqxYgeDgYLi5uWHv3r1wdXWFsbGx2NGIiIiogiQnJyMiIgKfffYZli1bhvnz52Pw4MHQ0OCsY3pz/GmpYOHh4Vi6dClmz56N8PBwdO7cmSWdiIiommvYsCGGDh2KmzdvwtLSEl999RWSk5PFjkVVDIt6Bbp58yaGDBmCOXPmICAgQOw4REREVMmMjY3x888/w9zcHIMGDYJCoRA7ElUhLOoVaOrUqXB1dcXXX38tdhQiIiISiYGBAfbu3YtLly5h8+bNYsehKoRFvYL8+OOP+PXXX7Fp0yaxoxAREZHI7O3tMWfOHMyZMwfp6elix6EqgkW9gixZsgQffvghnJycxI5CREREEjBz5kwUFBRgy5YtYkehKoJFvQKcOXMGUVFRmDVrlthRiIiISCL09fXx6aefYt26dZDL5WLHoSqARb0CLFmyBJ6ennB2dhY7ChEREUnItGnTkJaWhl27dokdhaoAFvVyVlhYiMjISIwYMULsKERERCQxFhYW6Nq1K44fPy52FKoCeMOjcnb+/HlkZmaid+/eYkchIiKit3Tz5k3I5XIYGxvDxMSk1L1PBEGAIAg4c+YMoqOj0aRJE/Tq1Qu6urpvfI7u3btj4cKFEAQBMpmsvJ8CVSMs6uXs+PHjcHR0hI2NjdhRiIiI6C1ZWVnByMiozHVKpRIymQwJCQmYOHEikpOTUb9+fbx48QIjR45843N0794dn3/+OWJiYuDm5lZe0aka4tSXcpaQkIB27dqJHYOIiIj+gezsbLXrNDQ0cOLECdSpUweenp4oLCxESkoKDhw48FbncHFxQa1atXDt2rV/G5eqORb1cpaQkIDmzZuLHYOIiIj+AT09vVLLlEolAGDnzp2YPn06li5dii+//BKjR4+GhoYGOnbs+Nbnad68ORISEv51XqreWNTLUU5ODhITEyu8qHt6ekImk5X6tWTJkjfa38bGBitWrHjlNtOmTePHcUREVOP8fU66UqmEhoYG9uzZg7lz5yIpKQnbt2/Htm3b4O/vj1WrVuGTTz556/M0b94ccXFx5RWbqinOUS9HDx8+hFKphLW1dYWfa+jQoVi0aFGJZaamphV+XiIioupMQ+N/Y5h/LemBgYFITk6GTCZDdnY2tm/fDk9PTwwbNqxUuX8TNjY2uHLlSnlGp2qIRb0cPX36FEDpd+MVwcjICHZ2dhV2/H/7LfSXf7kRERFVRS//Hdu2bRvmz5+PlJQU1Tq5XI5BgwahXbt2MDAw+EfHNzY2VvUGInXYpMrR8+fPAVROUX+V1NRUDB48GIaGhmjQoAGmT5+OvLy8V+6zceNGNGzYELVr18bAgQPx+PHjUttcunQJHTp0gJ6eHpo3b46NGzeq1m3ZsgWdOnXCsWPH4OjoCFtb23J/XkRERJWhrJL+8oovCoUC48aNQ0BAAExNTaGpqfmPzmFsbKzqDUTqsKiXIykU9dzcXHh4eKBhw4a4ceMGfv31V1y+fBkzZ85Uu8+6devg5+eHadOm4cKFC3j//fcRHh5eYps//vgD3bp1w4QJE3Dv3j188803CAwMxOHDh0tss2LFCpw+fRp37typsOdIRERUkTQ0NPD999+XWdLHjx+PefPmoW7duv/qHMbGxigoKEB+fn45pabqiEW9Aujo6FT4ObZs2QJdXV3Vr/79+wMA1qxZA0tLSyxfvhwNGjRA8+bNsXjxYuzevbvM4xQWFmLOnDmYOnUq/P390bx5cwwfPhyDBg0qsd3nn38OPz8/jBo1ChYWFujcuTMmTZpU4rgvXrzAt99+C1tb20p5DYiIiCrC9u3bMWfOnFIlferUqViyZAnMzc3/9fROfX19AP+7ogxRWThHvYry9fXFvHnzVI8NDQ0BABEREbhy5UqJ+etKpRJFRUUoKiqCtrZ2ieNcv34dz58/f+2dVCMiIhATE4Ndu3aplhUWFsLJyUn1WE9PDw4ODv/iWREREYkrMTERS5YswYMHD0qU9IkTJ2LevHkwMjIqVdLL+veVqDywqFdRtWvXRrNmzUotFwQB3t7eOHr06Bsd5+VfLC/f2asjCAJmzpyJzz777O3DEhERVRHR0dF4+vQpNDQ0IAiCqqR//fXXZZZ0ACgoKGBRpwrBqS/VTLt27XD27Fk8efLkjba3t7eHtrb2a6/l2q5dOxw6dKg8IhIREUnW+fPnkZ2djcLCQigUCvj7+2Px4sWoW7eu2ukunGdOFYVFvZrx9/dHnTp10K9fP0RERODevXv4/vvv8eOPP6q2qVWrFh48eAC5XA49PT2MGzcOixcvRnx8PJRKJcLDw7F3794Sxw0KCkJ0dDQ+/vhjXLt2DTdv3sTSpUuRmJhY2U+RiIiowjx48ADOzs6YPn06fvrpJ8yfPx9GRkavvLqLXC6vxIRUk7CoVzOGhoa4cOECmjZtin79+uGdd97Btm3bSlyJZujQofjmm29w+fJlAMCyZcvQq1cveHp6wtzcHBs3bsS4ceNKHNfV1RWRkZG4f/8+3N3d4ePjg6tXr/Ja6UREVK0cPnwYkZGRCAoKQt++fWFgYFDmv3VyuRwFBQUoKipC/fr1RUhKNYFMEARBjBOHhYXBx8cHrq6uqsJY1e3duxdDhgxBfn4+atWqJXYcIiIikqj9+/dj8ODByMnJee33xKTC19cXhw4dwubNmzF27Fix40jW02fPIJcryuVYHA4lIiIiIpIgFnUiIiIiIgliUSciIiIikiAWdSIiIiIiCWJRJyIiIiKSIBZ1IiIiIiIJYlEnIiIiIpIgLbED0Ktdv34dly5dwp07d5CUlISHDx9CqVSKHYuoypDJZGJHICKRvM2tYrS0tNCgQQM0atQIDg4O6NixIxo1alSB6Yhej0Vdoq5du4YZM2bgxIkTqmXW1tawt7fn3UCJ3oJI93QjoiomPz8fv/zyC9LS0lTLBg0ahJUrV8La2lrEZFSTsahL0Lp16+Dn5wcjIyMEBARg4MCBaNWqFfT09MSORkREVK1lZ2fjypUr+P7777FhwwacOHECW7Zsga+vr9jRqAbi0KyEKBQKTJw4EX5+fpg1axYePnyIJUuWwN3dnSWdiIioEhgaGsLDwwMhISF4/PgxPvzwQwwaNAhLly4VOxrVQBxRl5DQ0FB88803CAkJwcSJE8WOQ0REVKOZm5tj8+bN0NXVxcyZM9G3b1+0bNlS7FhUg3BEXSIEQcDChQvh6+vLkk5ERCQha9euhZubGxYsWCB2FKphWD4ZjAAAIABJREFUWNQlIi0tDZcuXULPnj3FjkJERER/0717dxw6dAhyuVzsKFSDsKhLREJCAgCgffv2IichIiKiv+vQoQPkcjkePHggdhSqQVjUJUJHR6fEf4mIiEg6Xl7UQUuLX++jysOiTkREREQkQSzqREREREQSxKJORERERCRBLOpERERERBLEok5EREREJEH86jIRVYjz589j2rRp0NfXFztKmUxMTHDkyBGxYxAREanFok5EFeLQoUO4ePGi2DHU2rdvH5KSkmBvby92FCIiojJx6gsRVQip373PxcUFUVFRYscgIiJSi0WdiMpdQUEB8vLyxI7xSvXq1cOVK1fEjkFERKQWi3o1IQgC7Ozs8PHHH5dYfvDgwRK3O46OjkZERITa4xw/fhytW7cGAERERKB9+/ZvneV156Dqr7CwEAYGBm+1j0KhgJmZGYKCglTLAgMD0blzZwBAQkJCuf5cGRoaIj09vdyOR0REVN5Y1KuJiIgIuLm54eTJkygsLFQt37x5c4mifvLkSbVlRxAEdOnSBfv27VMtk8lkb53lVeegmuHp06fQ0dF5q31+++03KBQKrF+/XrXsxYsXyMjIAAD88MMPWL58+RsfT6lUvnK9jo4OsrKy3iojERFRZeKXSauJvXv3ok+fPigoKMDx48fRv39/zJgxAxERERg7dixatWqF/v37Y82aNdDW1saPP/6In3/+GSEhIZDL5YiOjkajRo0wePBgzJgxA5GRkQCA7OxsjBw5ErGxsdDT08OOHTvQrFkzTJs2DTY2NpgxYwYAwM3NDevWrUNSUlKZ50hLS8OzZ8+QnJwMc3NzHDp0CDKZDIcPH8bq1auRkZEBQ0NDHDhwANbW1li4cCFSU1Px7Nkz3LhxA15eXnB1dcWBAwdw//59bNiwAZ06dQIArFmzBrt37wYA9OjRA4GBgeL8TyCVvLw8aGtrv9U+a9euxXvvvYf9+/cjOzsbhoaGqnWXLl1CUFAQCgoK4OnpiYiICJw/fx5jxoxBQUEBhg8fjsDAQISEhODatWuIiIjABx98gHnz5r3ynFKfR09ERDUbi3o1oFAo8MMPP2D27NkoKirCvn370L9/f6xYsQKnTp3CN998o5rCcvHiRdSvXx8zZ85U7b9nzx5ER0fDyMio1Ej4s2fPMHv2bDRp0gTr16/H5MmTcerUKbVZhg4dWuY5rl+/jtDQUOjq6sLJyQmRkZHo0KEDHB0dcezYMRgZGeHLL79EcHAwli1bBqB4qkNoaCgAwMLCAk2bNsXPP/+MAwcOYNmyZejUqRNOnDiBqKgonD9/HhoaGvD19cW5c+fg4eFRbq8vvT1BEN66qIeHh+P48eOIiopCcHAwZs2apVrn4OCABg3+n737Dq+iWrw+vs5JISEJktASemii9JrQO1IE6YgUEcJVioAiIoIXFLBRBKlKB2mKgkrRq4ZIC0UCWEAgYKjSWxqQ5Jz3D96cH0gaMWEmyffzPHkumTOzZ41XYWWzZ6aYrl27pubNmys+Pl4dOnTQyJEj5ezsrEmTJqlPnz7avXu3Pv/8c82aNUuNGzdO9ZwUdQCAmVHUs4Hg4GAVLlxYfn5+atOmjUaMGKHY2Fi5u7un6fgOHTrIy8sryc+KFSumcuXKSZK6d++u119/PV0Za9WqJTc3N0lSqVKl9Pfff0uSKlSooP/9738KDg7W9u3b5efn5zimZs2aypUrlySpSJEijvJdsmRJnTt3TpK0bt06nTlzRv369ZMkRUdH6+LFi+nKiIxjsVhkt9vTvP/vv/+u27dvKzAwUO3atdOKFSvuK+o+Pj6qXLmyTpw4ofHjx2vDhg2KiorSvn37JN1dxrJ3717ZbDZVrFhR/fv3T9N5U1seAwCAkSjq2cDq1at17tw5x02gCQkJ2rhxo7p06ZKm49O6Dj0mJsZR/h+2iP3zfIkFqVevXvLy8tKwYcNUs2ZNxxKWlDLee3xCQoLatWvnWIKDrGny5MmKj4+Xl5eX7Ha7bt26leJs999//y2r1ary5ctLksqXL6+GDRtq06ZNjh8IAQDI6riZNIuLi4vT+vXrtW3bNh04cEAHDhzQ22+/rdWrV0uSvLy8dOnSJcf+//w+NZcvX9aVK1ckSTNmzFDr1q0lSX5+foqIiJAkRUREOH79MOew2+366quvNGPGDD355JP3jZFW7dq109y5c3XhwgVJ0smTJx96DBgv8V6GyMhIRUVFKW/evJo7d+59P6Dlzp1b0dHRkqRWrVrpzp07atWqlcaPH6///Oc/KlKkiFHxAQDIFBT1LO7777/X448/rjJlyji29ezZU99//70iIyM1bNgwDR06VE2bNpV0dwZ78+bNqlatmo4dO5bq+IULF9bzzz+v8uXLKzw8XNOmTZMk9e7dW3v27FHbtm01ffp0BQQEOI5J6zksFotGjBihZs2aqV+/fukq2e3bt9fw4cPVtGlT1a5dW8OGDXOUOWQNp0+f1vXr1xUUFOTY1qJFCy1atEgBAQH6888/derUKQ0YMECHDh1SoUKFlCdPHg0aNEht2rSRr6+v6tevzzIWAEC2Y7Gnd/3CvxQcHKxmzZqpWrVqCgsLMyJChlu9erV69OihW7duOdZWp9XOnTtVr149HTlyxLEmHMiqDh8+rDVr1qT61JW0OH/+vHx9fSXdfQrRjRs3HLPnJ0+e1LVr11SlSpV0PUq0Xbt2+vbbb/91RgDZ348//qgWLVro9OnTKlq06L8e7/PPP1f37t0VHR2t3LlzZ0DCzNelSxd9+eWXmj9//n2TK7jflatXFR+fkCFjsUYdQKbIqBnuxJIu3X1J0b2PbSxRooRKlCiR7rHTU+4BAHhUWPoCIMN5enpmiaUo95Z+AADMhqIOIMPlzZtXCQkZ89d+mSmr/HUzACBnoqgDyHBeXl6Ki4szOkaKoqKi7ntuPwAAZkNRB5ApnJycjI6QokuXLql06dJGxwAAIFkUdQCZIq1vxjVKeHi4ateubXQMAACSxVNfAGSK2rVrq379+nJ2NudvM87Ozvrxxx+NjgEAQLLM+ScogCyvTZs2atOmjdExAADIslj6AgAAAJgQRR0AAAAwIYo6AAAAYEIUdQAAAMCEKOoAAACACVHUAQAAABOiqAMAAAAmRFEHAAAATIiiDgAAAJgQRR0AAAAwIYo6AAAAYEIUdQAAAMCEKOoAAACACVHUAQAAABOiqAMAAAAmRFEHAAAATIiiDgAAAJgQRR0AAAAwIYo6AAAAYEIUdQAAAMCEKOoAAACACVHUAQAAABOiqAMAAAAm5Gx0AAA5R2RkpFatWqXvv/9ev//+u3x8fJQrV640HWu323X58mXlyZNHdevWVbdu3RQQEPCv8kRERGjFihUKCQnRqVOnVKBAATk7J//b4q1btxQTE6PKlSvrmWee0TPPPCNXV9d/lQEAgORQ1LO40qVL68svv1TVqlUVFxcnb29vfffdd6pfv74kydfXV4cPH5a3t3eax1y7dq0CAwNVtGjRzIqNHGjWrFmaNWuWgoKC9Oqrr6pevXrpGufUqVPat2+fZs+erVGjRmnZsmUqXrz4Q40RGxurV155RQcPHlRQUJCmTJmiSpUqyWpN/S8Zo6KitGvXLv38888aPXq0Zs6cqdatW6frWgAASAlFPYsLCAjQvn37VLVqVe3evVv58+fXli1bVL9+fZ05c0Z58uR5qJIuSfPnz1fRokUp6sgQcXFxeuGFF+Tk5KRdu3Ypb968/2q84sWLq3jx4urYsaM2b96sli1batasWWrevHmajj9z5ozatGmjHj16aM6cOWkq5/fy9PRU8+bN1bx5c/Xv31/PP/+8tm/frokTJ8pisaTnkgAASBJr1LO4gIAAhYWFSZKCg4M1fPhwbdmyRZIUFham2rVrS7o7g/jiiy+qXr16CgwM1Lp16yRJ27dvV/fu3RUUFKSmTZtqxIgR2r59u4KCgtSzZ09JUv369bV8+XIDrg7ZQe/evdWxY0ctXbr0X5f0f2rdurX27t2rGTNmaPv27anuf+3aNXXq1ElffPGFRo8e/dAl/Z9KliypkJAQubu7a/To0f9qLAAA/ominsUlzqhL0pYtW9SjRw+dOXNGt27d0r59+xxF/Z133lGtWrW0Y8cOBQcHa+zYsbp9+7Yk6euvv9awYcMUHBysqVOnqmzZslqwYIFWrFghSRo6dGi6lykgZ3v//ffl7++vzp07Z9o5vLy8tGTJEr300ks6f/58svslJCSoffv2ev/99/X4449n2PktFovGjh2rw4cPa82aNRk2LgAALH3J4qpVq6Y///xTMTExun79ugoVKqTAwEDt3r1b+/fv15tvvilJWrdunapWreqYdfTx8dHly5clSVWqVFGlSpWSPUe3bt0y/0KQ7Zw/f16rVq3S3r17M/1c+fLl0+TJk/XGG29oyZIlSe6zcuVKValSRU2bNs2UDPPnz1fz5s3Vvn17ubu7Z8o5AAA5CzPqWVyuXLlUrlw5ff75544nYDRu3Fjbt2/XoUOHVLVqVUl3ZxNHjRqlJUuWaMmSJdq2bZuKFCkiSayrRaaYPn26XnnllUf2VJTEZTAXL15M8vOpU6fqv//9b4pj/PXXX3Jzc9OBAwckScuWLVOlSpVUpkyZVGfLCxYsqFatWmnp0qXpuwAAAP6Bop4NBAQE6JNPPlGjRo0kSU2aNNGmTZvk7e0tNzc3SVL79u01adIkxcfHS5JOnjyZ7HheXl66dOmS4/u1a9fqr7/+ysQrQHa0fv36h5q9ttvtjmVc6dW4cWN99dVXD2y/ePGiYmJiVLBgwRSPHz58uOLj4/Xzzz8rISFBy5YtU+3atZU/f369+OKLSkhISPH4Jk2a6LvvvvtX1wAAQCKKejYQEBCgXbt2qWHDhpIkf39/nT17VrVq1XLsM2HCBBUoUECVK1d2FPvkDBs2TEOHDlXLli0lSdOmTdO2bdsy9yKQrdy5c0d37txJ02MTo6OjNXv2bFWsWFGvvfaaVq1apRo1atz3tWHDhjSdt0mTJo7Z8Hvt3LlTjRs3TvHYbdu2ad++fSpUqJAsFoucnJw0adIkLVy4ULt27dKdO3dS/AFXkho0aKBff/01TVkBAEgNa9SzgV69eqlXr173bYuIiLjv+9y5c2vu3LkPHFu/fn3t2rXrvm1dunRRly5dHN/v3Lkz48IiR7h27ZqaNGmS6n5Dhw7Vhg0b5Ofnp759+6pHjx76+++/1a5du/v2K1euXJrO27RpU3322WcPbD9//nyKeWw2m4KCgtSpUyf98MMPstvtkuRYTnbmzBlJSnXtuaenp4oVK5amrAAApIaiDiBTuLi4pLrPl19+KenuIxz79u0rNzc3HT58+IEfHps3b56msp5SkU4pz4wZM5SQkKBp06YleWN1586dVbFiRfn5+aWawcXFRTab7V8/+hEAAP4kAZDhvL29k1yC8k9nzpzR3LlztWTJEhUrVkw9evRQTEyMbt26dd+Xk5NTms77yy+/yNfX94Htvr6+KeaZNm2azp49K29vbx09elSjRo3St99+K0kaOXKkjhw5ok2bNqUpw5kzZyjpAIAMwYw6gAzn6uqq6OjoVGeWLRaL2rdvr/bt2ysqKkqffvqpnnnmGT3zzDPpOm9YWJjjSUf3qlOnjhYsWJDscadPn3b8+oknntBLL72kdu3aacmSJZo3b55+/fVX5c+fP9XzHz9+XOXLl09XdgAA/olpHwCZom3btjpy5Eia9/f09NSrr776r8554MCBJF+uVKhQIccLvtIqJiZG/fv31+3bt1WpUiV5enqqT58+KR6zf/9+tWrV6qHOAwBAcphRB5Aphg0bphEjRmjlypWP5Hx//vmnXFxcVKBAgSQ/79Wrlz777LMHbrz+p8OHDzt+ndrjGO8VFxenRYsWOdbdAwDwbzGjDiBT+Pn5qXLlypo5c2amnysqKkp9+vTRxIkTk93n+eef18qVKzPt8YlDhgzR4MGDeSspACDDUNQBZJo33nhDu3bt0vr16zPtHJGRkerZs6emTZuW6guNli9frkGDBj3Ukpy0+PDDD+Xt7a22bdtm6LgAgJyNog4gUy1ZskTr1q3T888/r8jIyAwdOzg4WDVr1tSwYcNUv379VPfPly+fVq5cqW7dumnq1Kmy2Wz/6vznzp1T8+bNdf36db333nv/aiwAAP6Jog4gU7m4uGjp0qWqVauW6tSpo+Dg4H89ZmxsrIYMGaJ33nlH//vf/9S0adM0H1u8eHGFhoYqPDxcTZo00V9//ZWuDIsXL1bz5s01YsQIvfvuu7JYLOkaBwCA5HAzKYBHYsiQIerTp48+++wzLViwQJcuXVJCQsJDzWpbLBblyZNHZcqU0XPPPae6deumK0vim3r/+usvrVixQvv27dPNmzdls9kcbyVNipOTk5ycnFSkSBE99dRTOnDggFxdXdOVAQCA1FDUATwyefLk0aBBgzRo0CCjo0iS/P39NXbsWKNjAACQJJa+AAAAACZEUQcAAABMiKIOAAAAmBBFHQAAADAhijoAAABgQhR1AAAAwIQo6gAAAIAJUdQBAAAAE6KoAwAAACZEUQcAAABMiKIOAAAAmBBFHQAAADAhijoAAABgQhR1k7Hb7UZHAAAA/2Cz2YyOgByIom4ShQsXliTt37/f4CQAAOCf9u/fLycnJ/n5+RkdBTkIRd0kSpYsqeLFiys4ONjoKAAA4B9+/PFHVatWTU5OTkZHQQ5CUTeRl19+WcuXL9fWrVuNjgIAAP6/NWvWKDg4WKNGjTI6CnIYirqJvPbaa6pRo4batm1LWQcAwATWrFmjZ599Vn369FGXLl2MjoMchqJuMl9//bVKlCihRo0aqXv37oqIiDA6EgAAOc5vv/2mli1b6tlnn1WbNm00d+5coyMhB3I2OgDuly9fPu3atUtTp07Vxx9/LH9/f7Vo0UL58+dX/vz55e3tLYvFYnRMAACyFZvNpitXrujKlSu6cOGCQkJCVKRIEc2cOVNDhgwxOh5yKIq6CXl6emrcuHEaOXKkFi5cqLCwMB0/flxbt27V2bNnjY4HAEC2VLJkSfn7+6tMmTLq3bu3+vXrZ3Qk5HAUdRPLnTu3Xn75ZaNjAAAAwACsUQcAAABMiKIOAAAAmBBFHQAAADAhijoAAABgQhR1AAAAwIQo6gAAAIAJUdQBAAAAE6KoAwAAACZEUQcAAABMiKIOAAAAmJCz0QGQNufOndP8+fN1+PBhnThxQidOnNCVK1eMjgUAQLbj5uamkiVLyt/fX+XKlVOrVq3UqlUro2MhB6Kom9ytW7c0atQoffzxxypYsKCaNGmi1q1b6/HHH1fhwoWNjgcAQLYTGxurw4cP688//9TWrVs1Y8YM1a5dW0uWLNETTzxhdDzkIBR1E4uIiFDbtm114sQJjRs3TiNHjpSHh4fRsQAAyPZat27t+PX69ev1+uuvq3r16po3b56ef/55A5MhJ2GNuknt3LlTNWvWlM1mU3h4uMaPH09JBwDAAB06dNDRo0c1cOBA9e3bV2PGjDE6EnIIZtRN6t1335W3t7e2bt2qAgUKGB0HAIAcb9q0aYqLi9P06dM1cOBAFS1a1OhIyOaYUTehgwcPauPGjfrggw8o6QAAmMjMmTNltVo1d+5co6MgB6Com9D+/fslSY0bNzY2CAAAeECDBg20Y8cOo2MgB6Com1BERIQKFy4sHx8fo6MAAIB/qFq1qiIiIoyOgRyAom5CLi4uRkcAAADJsFqt/FmNR4KiDgAAAJgQRR0AAAAwIYo6AAAAYEIUdQAAAMCEKOoAAACACVHUAQAAABNyNjoAgOzt7NmzOnbsmNExHjmLxaLAwEDlypXL6CgAgCyKog4g02zfvl3vvfeeatWqZXQUQ0ycOFE//PCD0TEAAFkURR1Aplm1apU2bNggi8VidBRD/PHHH1q4cKH69+9vdBQAQBbEGnUAmSIyMlKFChXKsSVdkipUqKC9e/caHQMAkEVR1AFkin379qlUqVJGxzDczZs3jY4AAMiiKOoAMkVERIT8/PyMjmE4Nzc33blzx+gYAIAsiKKejYSHh8vJyUlLly69b/v06dPv+37t2rU6c+ZMsuOMHTtWQ4YMkXT3Zrg33njjobOkdg5kf5cuXZKHh4fRMQzn4eGha9euGR0DAJAFUdSzkVWrVql3795as2bNfdvHjRt33/fz589PtkTb7XYNGzZMY8aMcWxLzxrjlM6BnCE6Olru7u5GxzCch4eHoqOjjY4BAMiCKOrZyJo1azRmzBj98ssvunLliiSpYcOGioyMVGBgoD788EO99tpr2r59u4KCgvTss89Kkpo3b65PP/1UTZs21cKFC/XJJ59oxowZjnH//PNPPfXUUypXrpy6dOmiyMhISVLVqlX1yy+/SJKioqLk5uYmScme4/3331e3bt1UuXJlffDBB47xJ06cqDp16ujxxx9Xz549ZbPZHMe8++676tKli8qWLatFixbpzTffVIsWLVS7dm1duHBBkhQbG6sXX3xRdevWVWBgoNatW5eZ/5jxEOx2u9ERDGexWPjnAABIF4p6NvH7778rPj5eZcuWVfPmzfXVV19Jkr755hu5urpq165dev311zVlyhSVLVtWCxYs0OrVqx3Hh4SEKDg4WEFBQQ+MffPmTX3xxRc6cuSInJyc7ivxSUnuHDdv3tTnn3+un376SW+//bajkDdr1kw7duzQ4cOHFRERoe+++85xTExMjNauXavly5dr4MCB6tq1q3744QfVqlVLy5cvlyS98847ql69unbu3Kng4GCNHTtWt27dSv8/TAAAABPgOerZxKpVq9S2bVtJUps2bbR48WINGDAgzcf37t072c9q1aqlPHnySJK6du2qxYsXpytjw4YNJUkFChSQi4uLrl+/Lh8fH1WuXFkrV65UaGioLly4oOPHjzuOqV+/viSpdOnScnd3V7Vq1SRJJUuW1Llz5yRJ69atU5UqVRQaGipJ8vHx0aVLl1SsWLF05QQAADADino2sWbNGlksFv3000+Kj4/X0aNHdeHChTS/vjyt69BjYmIc647/zV/pWywW2Ww2RUZGqm7duurXr5/efPNNWSwWJSQkpJov8XhJSkhI0MiRI1WzZs10ZQEAADAjlr5kA3v37tWdO3d09OhRHThwQL///rtatGihL774Qh4eHoqPj7/vWc5eXl66dOlSmsc/ceKE4uPjFRsbq08//VStW7eWJPn5+SkiIkKStGXLlvuOSes5fvvtN3l6euqVV16Rr6+vTp06leZcidq3b69JkyYpLi5OknTy5MmHHgOZg7XZAACkH0U9G1izZo169ep136xznz59tHr1arm4uOjVV19V9erVNXLkSEnSsGHDNHToUDVt2jRN47u4uKhx48aqVKmSAgIC9MILL0iSXn/9dY0bN06dOnXSiRMnVKBAAccxaT1HjRo15O3trXbt2mnAgAFycXF52MvXhAkT5OvrqypVqigwMFBz5sx56DGQ8VxcXLhXQHf/FsrT09PoGACALMhiN2jKKzg4WM2aNVO1atUUFhZmRIQMt3r1avXo0UO3bt1K85KTpEyaNElz5szR2bNnMzAd8GjNmzdP5cqVS/MPhNlVUFCQ5syZI1dXV6OjAMggY8eO1Zo1a3Ts2LF0j/H555+re/fuio6OVu7cuTMwXebp0qWLvvzyS82fPz/Jh0/gritXryo+/sFlvOnBjDqATFG6dGnHIzRzsujoaEo6ACBdKOoAMkXt2rV19OhRo2MYztvb2+gIAIAsiqIOIFM89thjjhdv5VSnTp1SpUqVjI4BAMiieDwjgEzTsmVLffjhh6pdu7bRUQyxYMECbm4GAKQbRR1Apnn66adVokSJHDuzPm3aNMfLwgAAeFgUdQCZiqUfAACkD2vUAQAAABOiqAMAAAAmRFEHAAAATIiiDgAAAJgQRR0AAAAwIYo6AAAAYEIUdQAAAMCEKOoAAACACVHUAQAAABOiqAMAAAAmRFEHAAAATIiiDgAAAJgQRR0AAAAwIYo6AAAAYEIUdQAAAMCEKOoAAACACVHUAQAAABOiqAMAAAAmRFEHAAAATIiiDgAAAJgQRR0AAAAwIYo6AAAAYEIUdQAAAMCEKOoAAACACTkbHQBAznP79m3t2bNHR48e1blz55SQkPBIzuvu7q4SJUqoQoUKqlSp0iM5JwAA6UVRz+JOnz6typUr6+rVq7JYLNq5c6datGiha9euydXVVYcOHdJzzz2nAwcOPNS406dP1/DhwzMpNXKqiIgIvfLKKzp06JCqVKmiWrVqqU6dOnJ2fjS/FUVFRWnPnj1avHixTpw4oc6dO+utt96Sh4dHusaLjY1VSEiIQkNDde7cOXl4eMhisSS7/61bt+Tp6amAgAC1aNFCefPmTe+lAAByAIp6FlesWDG5u7vrxIkTKl26tIKDg1WgQAHt3r1bDRo0UFhYmGrXrp3m8ex2uywWi8aNG0dRR4aaNWuW5s2bp4ULFyogIMCwHE8//bQkyWazaeHChapTp46WLFmi6tWrp3mM+Ph4zZgxQ2FhYerQoYP69u2rUqVKpenYS5cuaffu3RozZozc3Nz09ttvy9PTM13XAgDI3lijng0EBAQoLCxMkrRlyxYNHTpUW7ZskaT7ivrJkyfVrl071atXT02bNtWhQ4ckSc2bN9f8+fPVpEkTLV68WA0bNlRkZKQCAwM1depUXbx4UUWLFtXRo0eNuUBkaTabTcOHD1euXLn0+++/G1rS72W1WjVgwABt3bpVixYt0ldffZWm465evaqnn35afn5+WrFihbp27Zrmki5JBQoU0NNPP63Zs2erc+fOat++veO/RQAA7kVRzwYCAgK0b98+3b59W9euXVOHDh0cRX3fvn2Oot6nTx+9//772rFjh2bMmKFhw4Y5xggJCdGWLVvUr18/ffPNN3J1ddWe0k5SAAAgAElEQVSuXbs0YsQI+fj4aPTo0SpatKgh14es7dNPP1WlSpU0YMAAo6MkKW/evJo1a5a+/vprhYeHp7hveHi4goKCtHz5cj333HP/+tx169bVpk2b9NFHH+l///vfvx4PAJC9sPQlGwgICND777+vXbt2KSAgQKVKldLZs2d169YtHTt2TBUqVNCFCxd08OBBTZ482XHcveuCe/Xqlez4zs7OGjx4cKZeA7KnEydOaOPGjfr222+NjpKqjz76SM8995w2bdokq/XBOQybzaaRI0dq+vTpKlCgQIad183NTR9//LE6duyoOnXqyMvLK8PGBgBkbRT1bKBWrVr6/fffFRoaqkaNGkmSAgMDtXbtWpUpU0ZOTk6Kj4+XxWLRokWLkiwhKd0AB6TXW2+9pfnz5xsdI018fHw0dOhQLVq0SEFBQQ98/umnn6pdu3YqUaJEhp/b3d1dEyZM0Ouvv665c+dm+PgAgKyJpS/ZgKenp3x8fPT111+rYcOGkqQmTZpo3rx5jmUvRYoUUalSpTRjxgxJUlxcnP7+++8kx/Pw8FB8fLxu3rwpSUpISNC8efMUGxv7CK4G2UV0dLTy5MkjX19fo6OkWZs2bRQSEvLAdrvdrilTpqhfv34pHv/XX3/Jzc3N8ZSlZcuWqUKFCipXrpzWrFmT4rG1atXS8ePHde7cuXTnBwBkLxT1bCIgIECXL19W4cKFJd0t6jt27LjviS9r167VDz/8oCpVqqhhw4bavn17kmO5uLjo1VdfVfXq1TV69GhdvnxZb7/9tk6dOvVIrgXZw5YtWx7qJkuzOHv27APb9uzZoxo1aqR6bFBQkO7cuaMLFy4oJiZGc+bMUePGjWWxWPTyyy+n+rz4Ro0a6Ztvvkl3dgBA9kJRzyYWLFigY8eOOb4vWbKk7Ha7unXr5tjm7++vTZs26eDBgwoNDVXXrl0lST/++KNatWp133gffvihwsPD9d5776lQoUL6+++/9fjjjz+ai0G2cObMGZUpUybV/X755RdVrlxZRYoUkaurqwIDA5WQkKB+/frJ399fNWrU0F9//SVJqlixokaPHq2qVauqUqVKioqKkiR9/PHHKlOmjAoWLKgPP/xQkrRz507VrVvXcZ7SpUvr8uXLqeYpU6aMzp8/f9+24OBgNWnSJMXjfvzxRx08eFD58uWTdPcH3k8++USzZ8/Wvn37dPPmTUVHR6c4RuIP2AAASBR1AJnk/PnzaVr20rFjR1WrVk3vv/++nJycNHnyZE2ZMkU//vij5s6dKx8fHz377LOSpOPHj2v//v167bXXFBER4VjKdejQIQ0ePFiDBw/WmDFjHNsSC7509+VgaVG0aFFdvHjxvm0nT55MsajbbDb17dvXcQ3S3aJepUoVSf83S58nT54Uz127dm1duHAhTTkBANkfRR1ApvD19dWRI0dS3e/mzZt6/vnn1aNHDzk7O6t48eJavHixChUqpCVLlsjb21snTpyQdHet+Ny5c9WrVy8FBATot99+k3R3Rt3JyUnbtm2TzWZz7J8eR44cUcGCBR/Y7uLikuwxY8aMkZ+fX5I3oUpSu3bt9Mwzz6R6bmdnZ92+fTvtYQEA2RpPfQGQKUqWLKnvvvsu1f26du2qnj17qmDBgqpQoYJKlCih2NhYlShRQuXLl5ckNW7c2LF/4ox1rly5dOfOHUlS2bJl5eLiohdffFHbt29PdYlJSsLCwh74mwBfX18dOHAg2TX3c+bMUXx8vLy8vBQdHa2OHTtqz549qlixonr37q2oqCitXLky1XMfP35c3t7e6c4OAMheKOoAMkXTpk01derUVPfbtm2bPv74YxUoUED169eXJNWsWVOHDx/Wpk2bZLPZdOPGjWSPv3Dhgi5cuKBbt27pxo0bjqUvRYsWdaxhP3z4sOLj41PNEhsbq5IlSz6wvXr16tq7d686deqU5HH35vP19dXSpUtVsWJFTZ48WRs2bNDx48cdP2CkJCwsTIGBganuBwDIGVj6AiBTuLq6ysPDQ7/88kuK+xUoUEC9e/dWu3btVLJkSb377rtatGiRoqKi5OfnJz8/P8da9KQUKlRIPj4+KlOmjBo0aCBXV1dJd39Q8Pb2lre3t7p16yZ3d/dUM0+fPl1dunR5YHuzZs30xx9/pHr8vY4fP65Ro0YpJiZGxYsXl6enp0aOHJniMfv371e7du0e6jwAgOyLGXUAmWbKlClq3769Dhw44CjQ90pISNAff/yhS5cuycvLS0uXLtWQIUP05ptv6tSpUwoNDVXp0qUda8Zv3brlOHbjxo2OX587d0579uxRhQoV5OHh4dh+6tQpnTlzRkWLFk0166+//qr169crNDT0gc88PDzk7++v3377TZUqVUpxnHufGGOz2VI9b6Jr167pyJEjqlChQpqPAQBkbxR1AJmmTJkyGjp0qN544w1NmzYtyX1cXV1Vr1495c2bV5cuXbrvhsw6deqk+Vz3vjPgXmkp6ZI0aNAgLV++PMk390rSO++8o/bt22vz5s1J/tDxb/Xv318ffPBBho8LAMi6WPoCIFO99NJLslqteumllx64ydPJyUmHDh3S+PHj1bVrV82fP18fffTRI80XERGhRo0aacyYMSpXrlyy+3l4eGjy5Ml67bXXZLfbMzTD7Nmz1b17d5UtWzZDxwUAZG0UdQCZbsqUKapataqeeOKJB17oky9fPnXq1Ekvv/yy42bSR8Fut2vmzJlq0aKFZs+erdatW6d6TPXq1dWtWzd16tQpQ97Ue/PmTQ0YMEB58+ZV9+7d//V4AIDshaUvAB6Jl156SW3bttXQoUMVFBSkKlWqqFatWqpSpYqcnR/Nb0VRUVHas2eP9u7dq/DwcHXu3Fm//vprmm40TVS/fn2VKFFCw4cPV9u2bdWvX790ZQkJCdGkSZP0wQcfqHr16ukaAwCQvVHUATwyxYoV07p16xQXF6dff/1VBw8eVGhoqBISEh7J+d3c3FShQgX17ds32Weip0WxYsX05Zdfavv27Ro/frzOnTsnd3d35c2bVxaLJdnjbty4odjYWOXNm1d169bV999/n+yaeAAAKOoAHjkXFxfVqFFDNWrUMDrKv1K/fv1HulwHAJCzMJUDAAAAmBBFHQAAADAhijoAAABgQhR1AAAAwIQo6gAAAIAJUdQBAAAAE6KoAwAAACZEUQcAAABMiKIOAAAAmBBFHQAAADAhirpJ3bhxw+gIAAAgCVeuXDE6AnIIiroJPfnkk4qOjtauXbuMjgIAAP4hODhYTz75pNExkANQ1E3oqaeeko+Pj0aNGqWEhASj4wAAgP9v6dKlOnr0qHr06GF0FOQAFHUTyp07t6ZOnaqtW7dq5MiRRscBAACSfvnlF/Xt21fNmzdXt27djI6DHICiblJ9+/bVoEGD9NFHH+nll1/WtWvXjI4EAECOtXz5crVp00b+/v5asWKFrFYqFDIf/5aZ2OzZszV06FDNmjVL/v7+mjJliv7880+jYwEAkCOcO3dO3377rapVq6Y+ffqoVKlSCg4OVsGCBY2OhhzC2egASNmMGTM0fPhwffDBB3rrrbccS2HKli2rwoULG5wOAIDsJzY2Vr///rtiYmIkSYGBgfr222/19NNPG5wMOQ1FPQvw9/fXvHnzNG/ePP355586ceKETpw4ocuXLxsdDQCAbMfd3V2vvvqq/P39Va5cOeXNm9foSMihKOpZTPny5VW+fHmjYwAAACCTsUYdAAAAMCGKegZyc3OTJMXFxRmcBAAAmNmdO3ckiafHIEX825GBEot6VFSUwUkAAICZRUZGKleuXI7uACSFop6BEm82oagDAICUREZGcpMqUkVRz0AUdQAAkBYUdaQFRT0DFS1aVE5OTjpz5ozRUQAAgImdOXNGJUuWNDoGTI6inoE8PT1VtGhR/fHHH0ZHAQAAJvbHH3/wuGWkiqKewcqXL69Dhw4ZHQMAAJjYoUOHKOpIFUU9g1WtWlU7duwwOgYAADCpgwcPKjo6WlWrVjU6CkyOop7BWrVqpePHjys8PNzoKAAAwIS+++47PfbYYwoICDA6CkyOop7B6tSpo8cee0ybN282OgoAADChzZs3q1WrVrJYLEZHgclR1DNYrly51KJFCy1evNjoKAAAwGTOnDmjbdu2qXPnzkZHQRZAUc8E/fv31/79+xUaGmp0FAAAYCIfffSR8ubNq7Zt2xodBVkART0TPPXUU6pQoYKmT59udBQAAGASMTExmj9/vgYMGKDcuXMbHQdZAEU9E1gsFr388sv64osvtG/fPqPjAAAAE3jvvfcUGRmpwYMHGx0FWQRFPZMMGDBAlStX1gsvvGB0FAAAYLBDhw5p4sSJGjVqlIoVK2Z0HGQRFPVMYrVatXTpUh05ckRBQUFGxwEAAAa5fv262rdvr8qVK+udd94xOg6yEIp6JqpSpYpWrFihpUuXaty4cUbHAQAAj9jNmzfVunVrxcfH65tvvpGrq6vRkZCFUNQzWZcuXbR69Wq98847atKkiX7++WfdvHnT6FgAACATnTp1SitXrtTjjz+uS5cu6eeff1aJEiWMjoUsxtnoADlB586ddfToUfXv31+NGzc2Og4AAHgErFarhg4dqokTJ8rDw8PoOMiCKOqPSNmyZbV161ZdvnxZJ0+eVGRkpNGRAABAJilUqJCeeOIJo2Mgi6OoP2L58+dX/vz5jY4BAAAAk2ONOgAAAGBCFHUAAADAhCjqAAAAgAlR1AEAAAAToqgDAAAAJkRRBwAAAEyIog4AAACYEEUdAAAAMCGKOgAAAGBCFHUAAADAhCjqAAAAgAlR1AEAAAAToqgDAAAAJkRRBwAAAEyIog4AAACYEEUdAAAAMCGKOgAAAGBCFHUAAADAhCjqAAAAgAlR1AEAAAAToqgDAAAAJkRRBwAAAEyIog4AAACYEEUdAAAAMCGKOgAAAGBCFHUAAADAhJyNDgAAAJDV2Ww2Wa135z9jYmK0d+9e7dy5UwcOHNDJkyd17do1xcbGymKxKHfu3MqXL5/8/f1VtWpV1atXT9WrV5erq6skyW63y2KxGHk5MAmKOgAAQDolFnSr1aqIiAitXbtWmzdv1uHDhxUbG6vbt28rPj5eCQkJstvtkiSr1arjx49r//792rBhg7y8vFSxYkU99dRT6tixo4oXL37f2Mi5KOoAAADpYLfbZbVadfHiRc2aNUtr1qzRxYsXFRMTo7i4OLm7u6t06dIqUaKEChUqJC8vL9ntdt28eVPnz59XRESETp48qRs3bujChQvatWuXFixYoGeffVYvvvii8ufPz+x6DkdRBwAASAeLxaKvv/5aEyZM0LFjxxQVFSWLxaJGjRqpTZs2CgwMVKlSpeTs7CxnZ2dH4bbZbEpISNDt27cVHh6u7du3a9OmTdqzZ49u3rypKVOmaPPmzfrvf/+rli1bGnyVMBJFHQAAIB3Gjx+vOXPm6Nq1a4qPj1fLli310ksvqV69evLw8FCuXLnk7Owsu93u+JLuFvzEL19fX9WoUUP9+vXTtm3b9MknnygkJER79uzRwIEDNWTIEL3yyisGXymMQlEHAAB4CHFxcRo8eLDWrFmjmzdvytfXV//973/VuXNnPfbYY8qVK9d968sTS3lSnJ2d5eHhIU9PT3Xo0EH169fX559/rg8++EARERGaPHmyLl68qAkTJsjZmdqW03CHAgAAQBokzogPGjRIK1as0M2bN1WzZk198803ev7551WgQAHHk1se5iZQq9Uqi8UiV1dX+fn5KSgoSGvWrFHFihV14cIFLVq0SGPHjr1vVh45A0UdAAAgFTabTRaLRePGjdPKlSsVExOjRo0aae3atapevbrc3NxSnDlPC4vFIqvVKg8PD9WtW1eLFi1S7dq1dfnyZS1btkzTp0+XxWKRzWbLwCuDmVHUAQAAUpD4dJdvv/1W06dPV0xMjKpXr67ly5erePHijsczpiYqKkrR0dGp7me1WuXs7KwqVapo1qxZevLJJ3XhwgXNmjVLP/30k6xWKzPrOQRFHQAAIBVXrlzRa6+9pqioKBUoUECLFy9WsWLFJCnVWXS73a4TJ06oRYsW6tChgy5evJjq+SwWi5ycnFSpUiVNnTpVefPm1dmzZzVx4kRdv349Q64J5kdRBwAASEbic8wnTZqk8PBw2e12TZ8+XZUqVXIsh0nt+ISEBP3xxx/as2eP9uzZoyNHjjg+S4nFYpGzs7Pq1q2rcePG6c6dOzpw4IBmzpzJs9VzCIo6AABAMiwWi06dOqVFixbJbrerZcuW6tq1q2M5TFqOv/d/k9uWHKvVKnd3d3Xu3FkNGjRQZGSkVq1apbNnz6bzipCVUNQBAABSsHjxYt28eVNOTk5666235OLikuZj7312+j+f2pLWdeZWq1X58+fX0KFDZbFYdP78ea1du/bhLgJZEkUdAAAgGXfu3HGU4vr16yswMFDSwz1+UdIDLz16GImPbqxTp45q1KihmJgYbdq0SXFxcQ89FrIWijoAAEAS7Ha7du/e7VhT/uyzz8rJycmQxyPa7XblyZNH7du31507d3T48GH9+uuvjzwHHi2KOgAAQBLsdruCg4MVHx8vNzc3NW/eXFLa1pZnNKvVKjc3NzVo0EC5cuVSVFSUQkNDH3kOPFoUdQAAgCTY7Xbt2bNHklSmTBn5+/tLSrqo37u0JfHLZrPJZrM5fp0ocXviZ0l9JcXZ2Vn+/v4qWbKkbt++zYx6DkBRBwAASILdbld4eLgkqVy5cim+aCjxraT3flmtVjk5OTneNpq4n4eHh+OzpI5LbsbebrcrV65c8vf3V1xcnE6dOpU5Fw7TcDY6AAAAgFldunRJdrtdRYsWlfR/z1W/18WLF3X06NEHjr13hnzfvn2SpISEBO3evVsxMTHJPuLRarWqXLlyyp8//wPjOTk5ydfXVzabTdeuXcuoy4RJUdQBAACSERsbK0l67LHHJD34SMUbN26ocePGOn36dIrjJCQkOMYbOXJkik+NsVqtKl++vH788Ud5eXk5ticWey8vL9lsNkc2ZF8UdQAAgGT8s5gn9X1kZKSioqLSPF5MTEyK+1itVkVFRaW4zCapLMh+KOoAAADJcHNz0+3btxUZGSnpwRtJH3vsMYWEhOjw4cOOlxrdK/GG0X379mnChAlyd3fXuHHjVKFCBdlstgdm1hPXqD/xxBPKkyfPA5/Z7XZFRUXJYrHIzc0tE64YZkJRBwAASEa+fPl048YNnTt3TtKDRd1isahUqVIqUaJEsmMkJCTI3d1d0t0ntzRp0kTVq1dPdv/EG1GT2h4fH68LFy7IycnJsRwH2RdPfQEAAEhCYgm3WCw6duyYpKTfSGqxWOTk5JTkV2Lpvn37tqS7y1Vu3brl+CypY6xWa5JPfrFYLIqLi1NERIRcXFxUrFixzP0HAMNR1AEAAJJgsVhUs2ZNSdLRo0dTvGE0uccsJvXIxYfZ914JCQk6ffq0Tpw4IVdXV1WqVCljLximQ1EHAABIgsViUbNmzWSxWBQdHa2QkBBJuu/lRWkZI7ltD/OGU5vNplu3bmnnzp2KjY1V7ty5VadOnTQfj6yJog4AAJAEi8WiunXrqnTp0pKklStXOrY/alarVdHR0fr666/l4uKismXLqlq1ao88Bx4tijoAAEAycufOrWeeeUaSFBISooMHDyb5dJfU/Jtyb7fbdefOHYWFhWnXrl1yd3fXU089xVNfcgCKOgAAQAoGDx6sXLly6fbt2xozZoyktC9/ubegW63W+25GTWt5t9vtun79uiZPnqy4uDjlz59fvXv3fogrQFZFUQcAAEiGzWZTyZIl9cILL8hut2vjxo1at26dnJycHG8bTUnizHt8fLxsNptsNpvjuLTMyieuTV+/fr2Cg4Pl6empHj16qGjRorzwKAegqAMAACQjcZnL+PHjlT9/flmtVg0cOFB///23nJycUp1ZT3wEY/ny5VW8eHGVKFFC5cqVc3yWErvdLrvdrsOHD2vs2LFycXGRv7+/XnnlFdntdkPWyuPRoqgDAAAkI7GoFyxYUDNnzpTNZtOFCxfUuXNn3bp1S1arNU1l/fHHH9dvv/2m0NBQ+fn5pXrexCJ+9uxZ/ec//9GlS5eUN29eTZgwQT4+Phl1eTA5ijoAAEAKrFarEhIS9Oyzz2rw4MGSpNDQUHXs2NFR1tOyDCZPnjzy8vJKdT+bzSaLxaLTp0+rT58+CgsLU548eTRw4EC1a9fO8TmyP4o6AABAKhKXucycOVPt27eXJH333Xdq3ry5Tp8+7fg8pdn11NaU22w2x0z6kSNH1KlTJ/3888/KnTu3unXrpvHjx8tutyf5dlRkT/w/DQAAkAaJBfmLL75wPLJxx44dCgwM1BdffOF4qovdbk+ysCc1C37vvlarVfHx8frss8/UtGlT/fLLL8qdO7d69uypOXPmpPjWUmRPOa6oFy1aVB9++KHj+8uXL6to0aIGJgIAAFmJq6ur1q1bpyFDhkiSzp07p27duqlDhw4KDQ2VxWK5b9Y78Ukv8fHxSkhIcMycS3Lsm5CQoJCQEHXs2FF9+vTRuXPnlCdPHo0cOVKffvqpXFxcDLlWGCvHFXVnZ2d99tlnOn/+vNFRAABAFpN4c6nFYtHMmTP12WefOW4O/frrr9WgQQO1bdtWS5cuVUREhKS7M+VOTk5ydnaWk5OTrFarLBaLbDabjh49qrlz56pFixZq3ry5Nm7cKKvVqlKlSmnZsmUaP368cRcLwzkbHeBRi4+P16BBgzRq1CgtXbr0gc8nTpyojRs36urVq6pZs6aWL18uq9Wq5s2bq2nTpgoLC9PBgwc1evRohYeHa+/evbpx44a+/fZbFSpUSLGxsRo+fLh+++032Ww2jRo1Sh07dtTGjRv1+uuv648//jDgqgEAQEZJXH5is9nUs2dPNW3aVBMnTtSyZcsUFRWlTZs2afPmzfLw8FDZsmVVpkwZFSlSRHny5JEkXb9+XadPn9axY8d04sQJxcTEOMb18fFR37599frrr6tQoUI8hjGHy3FFXZI6deqkhQsXavfu3SpduvR9nzVr1kxvvvmmJKlBgwb67rvv1KZNG0lSTEyM1q5dq127dqlRo0batWuX3n33XQ0ePFjLly/Xa6+9pnfeeUfVq1fXJ598opiYGNWqVUutW7dWtWrVNGrUqEd+rQAAIHMkLlnx8/PT7NmzNXz4cC1ZskTr1q3TkSNHFBUVpf3792v//v3JjmGxWOTi4qIKFSqoQ4cO6t27t0qVKiXp7g8C3Dias+XIom6z2TRjxgwNHTpUmzZtuu+zypUra+XKlQoNDdWFCxd0/Phxx2f169eXJJUuXVru7u6qVq2aJKlkyZI6d+6cJGndunWqUqWKQkNDJUk+Pj66dOmSihUrpj59+jyKywMAAI+Ik5OTpLvdomzZspo0aZLGjBmj0NBQbd26Vfv379eJEyd09epVxcTEyGKxyMPDQ/nz51fp0qVVs2ZNNWzYULVq1ZKrq6uk/3uGOiUdObKoS1LdunVVrlw5ffXVV45tkZGRqlu3rvr166c333xTFoslyeei/vOvoBLXmUlSQkKCRo4cqZo1a2buBQAAANO4t1Tnzp1bzZo1U7NmzdI1FktdkChH/6j24Ycfavbs2Y7/uH777Td5enrqlVdeka+vr06dOvXQY7Zv316TJk1SXFycJOnkyZOSpL///lufffZZxoUHAABAtpaji7qfn5969OjhmA2vUaOGvL291a5dOw0YMCBdj0KaMGGCfH19VaVKFQUGBmrOnDmSpH379mnSpEkZmh8AAADZl8We2muyMklwcLCaNWumatWqKSwszIgIAAAASKMuXbroyy+/1Pz58xUUFGR0HNO6cvWq4uMfXDqdHjl6Rh0AAAAwK4o6AAAAYEIUdQAAAMCEKOoAAACACVHUAQAAABOiqAMAAAAmRFEHAAAATIiiDgAAAJgQRR0AAAAwIYo6AAAAYEIUdQAAAMCEnI0O8CjFxMToq6++0oYNG/Trr7/K29tbLi4uRscCkM3dvn1b165d05NPPqkWLVqoW7duypcvn9GxAAAml2OK+rhx47Rhwwb1799fI0aMUK1atYyOBCAHuXXrlvbt26e9e/cqMDBQvXr10rhx44yOBQAwsWy/9OXcuXOqWbOm4uPjFRoaqkGDBlHSATxybm5uqlevnoYPH64DBw7o6tWrqlevnq5fv250NACASWXrGfWzZ8+qe/fuWrBggapWrWp0HACQJHl4eGjGjBnavXu3nn76af3000/KlSuX0bEAACaTrWfUO3furA8++ICSDsCUAgICNHDgQPXu3Vt2u93oOAAAk8m2RX316tWqU6eO6tWrZ3QUAEhWz549FRcXp23bthkdBQBgMha7QdM4wcHBatasmapVq6awsLAMH79du3b68ssv5erqmuFjA0BGunr1qoYMGaKVK1caHQUmFBISoiVLligiIsLoKMjhYmJiFBcXJ3d3d/qVJIvFoieffFIvvPCCatas6dh+5epVxccnZMg5suUa9WPHjqlevXr8SwQgS/Dx8VHevHkVFRUlT09Po+PAREJCQtSkSROjYwBIRkhIiBYuXKhjx46pWLFiGT5+tizqO3bsUMmSJY2OAQBpVrRoUe3Zs0dNmzY1OgpMxM3NTZJUsGBBvfvuuypRooScnbPlH91AlnLnzh1FREToxRdf1O3bt2WxWDLlPNnyv/aIiAi1atXK6BgAkGYlS5bUqVOnjI4Bk/L29lb//v2NjgHgH1599VVFR0dn2vjZ8mbS8+fPq0iRIkbHAIA0K1asmM6fP290DACAiWTLou7s7CyrNVteGoBsysXFJdP+6hQAkDXRZgEAAAAToqgDAAAAJkRRBwAAAEyIog4AAACYEEUdAAAAMCGKOgAAAGBC2bKoe3p68jxiAFnK+fPn9dhjjxkdAwBgIvUiNpEAAB/bSURBVNmyqPv6+mr//v1GxwCANAsLC5Ovr6/RMQAAJpIti3qdOnUo6gCylP3796tevXpGxwAAmEi2LOq1a9fW5cuXjY4BAGlmt9tVoEABo2MAAEwkWxZ1i8WiUqVKafv27UZHAYBUff755+ratavRMQAAJuNsdIDM8vbbb6tevXravHmz8ufPb3QcAEhSeHi4PvroI4WGhhodBQBgMtlyRl2SXF1dNXr0aPXs2VNRUVFGxwGAB9y8eVN9+/bVypUrjY4CADChbFvUJalTp07q0aOHAgICtGXLFqPjAIBDcHCwmjZtqhkzZsjf39/oOAAAE8q2S18S9e3bV40aNVLfvn21atUqTZs2TZ6enkbHApBDxcbGasSIETp8+LA2btyoQoUKGR0JAGBS2b6oS5K/v79+/vln7dq1Sy+//LLCw8OVP39+lS9fXrly5TI6HoBsLiYmRocOHdLly5dVuHBhBQUFac6cOUbHAgCYXI4o6okCAwMVGBgoSbpy5YqOHz+umJgYg1MByO48PT1VokQJHr8IAHgoOaqo3ytfvnzKly+f0TEAAACAJGXrm0kBAACArIqiDgAAAJgQRR0AAGR7R44c0UsvvaQyZcrIzc1N+fLlU6tWrfTDDz8YHQ1IFkUdAABkawsXLlSlSpW0bNky1apVS2PHjtXAgQN15coVtWzZUkuXLjU6IpCkHHszKQAAyP5++OEH/ec//1HFihW1YcMGFStWzPHZhAkTtH79erVp0ybFMex2uxISEuTsTG3Co8WMOgAAyLZGjBghFxcXrV+//r6SLkkWi0UdO3a8750q169fl8Vi0eLFi/Xd/2vvPqOiuvY2gD9DkTZYsCAKKhaGeBXBiEIUsSWi0kyw5ZLo1RSxUKKxx4KXqwRERVNUothiohJQlzHGllgoAYxBESOKBSEEBVQcwTKc9wOLeTOOICBwxuH5rcUHz9lnn/8ZPvjMZp+9f/oJdnZ20NPTQ0xMDIDy5VYHDBigdh8fHx9IJBI8ffpUeSwwMBAWFha4du0aPvjgA5ibm8PIyAh9+vTBgQMHVK6Pi4uDRCJBcnIygoOD0bVrVxgYGKBr164IDQ2FIAhq90xKSoKbmxukUilMTU0xfPhwpKamqrQJDAyEpaUlSkpKsHDhQnTo0AEmJiZwdHREfHx8zT9QalAM6kRERKSV0tPTcf78ebzzzjuwtrau0bV79uzBpEmTMHXqVBw6dAhvvfVWrWrIy8uDnZ0dzM3NcfjwYfz000+QSCTw9vbGiRMn1NoPGDAAGRkZ2LJlCxISEvDGG29g3rx5WL58uUq7gwcPwsXFBcXFxYiIiMCqVatQWFgIV1dXZGdnq9XQq1cv5OfnY+fOndi2bRtyc3Ph7u6OBw8e1Oq5qGHwbzhERESklc6dOwcAcHZ2Vjl+//59lQ0P9fX11fZWOXz4MBISEtC3b9+XriMuLg5Dhw5V6dvKygpLlizB4MGDVdrOmTNHJZRv27YNmZmZWLVqFfz9/dG8eXPI5XJMnjwZQ4cOxY8//giJRAIA8PX1hY2NDZYuXYpvvvlG2YdCoUBQUBD8/PyUx3Jzc+Hv74+jR4/C29v7pZ+R6gdH1ImIiEgr3b17FwDQvHlzleNz5syBhYWF8sfV1VXt2pEjR9ZJSAeALl26qPzbzMwMw4YNw6lTp1BYWFhlWwAYO3Ys7t+/rxyBP3jwIPLz8zF37lxlSAcAY2NjDBs27Lkj9SNGjFD5t62tLQDg5s2btXsoahAcUSciIiKtVBHQi4qKVI77+/srR5Hnz5+PJ0+eqF1b37uXW1hYAABycnJgZmZWrba3bt0CUD6lBwC8vLxUgjoAlJaWomnTpi+8v5GREQCo/GWBNA+DOhEREWklOzs7AEBiYiJmzpypPN69e3d0794dABAeHo68vLwGr62goAAA0KRJkxq3rXixdOfOnejRo4dae65Ooz34myQiIiKt1KNHD8hkMsTGxiI7O1tt1ZfaMDY2Rmlp6Uv1UVZWhrNnz8LExKRaL7mmpKQAAHr27Ang/6etZGVlwd3d/aVqIc3GOepERESklSQSCcLCwlBSUoLRo0cjJydH5bxCoajxqidWVla4du2aynSZ7OxsJCQkVHrNs/PAo6KikJWVhXHjxqmNqD/b9sKFC/j222/RtWtXODk5AQDc3d1hZmaGkJAQtWd63jQeenVxRJ2IiIi0loeHB8LDw/Hpp59CJpPBw8MDtra2KCoqwpEjR3Dx4kVMmDCh2v2NHTsW8+bNw4wZM/D+++8jKysLS5YsQbt27ZCbm/vca9zc3PDOO++gT58+yMjIwMaNG9GhQwesWLFCrW1wcDBOnz6NYcOGQS6XY+3atZBIJIiKioKOTvn4atOmTbF582aMGTMGdnZ2mDp1Kjp37oysrCxs374dGzZsUHt5lF5NDOpERESk1WbNmoVBgwYhIiICJ0+eRExMDExNTeHg4IAFCxbUKKgHBQUhLy8Pe/bswY4dO+Dk5IRvv/0WKSkpyikqz/rxxx8RGRmJhQsXwsDAAO+99x5WrFiBNm3aqLWNjIxEZmYmwsPDIZfL4ezsjJCQEPTr10+lnZeXFxISEhASEoKvv/4axcXFsLa2xpQpU9SWo6RXl0R43lZXDeD48eMYOnQoHBwccPbsWTFKICIi0miJiYlwdnaGTCbDpUuXxC6HaigwMBBr167F9evX0bFjxyrbxsXFYfTo0YiOjsbEiRMbqEJ6WVKpFHK5HNnZ2bC0tAQAFBQW4ulTRZ30r7Uj6vHx8Xj8+LHYZTS4tm3bKl8yqY7U1FQUFxfXY0VUE02bNkXv3r3FLoOIiOpQTcZERRo/JQ2llUF96dKluH//frXWEdU258+fh7+//3M3b3iWq6srbG1tleuzkvhycnJw+fJl/Prrr2KXQkRERCLTyqD++++/Y9++fWKXIYrS0lJMnDjxhUH9v//9L8aNG4dp06Y1UGVUXZ9//jlWrlyJefPmiV0KERERiUjrlmf85Zdf4ODgIHYZojE0NERxcTHKysoqbfPo0SPs37+fIV1DzZkzB/v374dCUTfz24iISBxr1qyBIAjo1KnTC9t6e3tDEARMmjSp3uuiV4fWBfVLly7h9ddfF7sMUclkMty4caPS8ydPnlRunUyaadiwYfj999/FLoOIiIhEpHVB/dy5czV6mVIbdevWDcnJyZWej4mJwcCBAxuwIqopFxcX7N27V+wyiIiISERaF9QzMzPRuXNnscsQVbdu3SrddAEAcnNzlbubkWZycXFBWlqa2GUQERGRiLQuqOvq6kJXV1fsMkRlYWGBvLy8Ss+XlJRAT08r3yPWGoaGhnj06JHYZRAREZGItC6oP3z4UOwSRGdqaoq7d+8+95xCoeBLiq8I/p6IiIgaN60L6hwprjqol5SUoEWLFlVev27dOtjY2MDCwgIjR47ElStXalXH6dOnNXqKTVFREczNzXHz5s1K24j5DIaGho1y0y4iIiIqp3VBXSqV1qj98ePH0bt3b1hZWcHe3h5Hjhyp9b319PRQWlpa6+vrSvPmzSut49GjR2jVqlWl1547dw5r1qzBb7/9hr/++guzZ8+GXC6vdS0SiaTW19a3Fi1a4OjRo7Cysqqy3cs8w8vsMNeqVSsGdSIiokZM64J6TUJVWVkZxo0bh+joaGRnZyMmJgYlJSUNdv/6oqNT+a/1yZMnaNKkSaXn5XI5JBKJso8hQ4agV69eAIAePXogJSUFAHD37l2VL0W//vornJycYG9vDw8PD2W4VygUmDZtGqytrWFvb4+cnBwA5SP7H3/8Mfr37w8nJyfExsYCKN+Iyd/fH++++y5cXFzw9ttvq4XdzMxMuLi4wMXFBW+++aZyPn6bNm0QEBAAHx8f9O3bV2XTq8jISDg5OaFfv35YvHix8riDg4NyLnhdPsOyZcswcuRIBAQE4PTp03Bzc8O0adMwatQovP7668o+qmJsbMygTkRE1IhpXVCvCYVCgZKSEmUo7dKlCzw9PQEAe/fuhbu7u7JtYGAgwsPDAQA3b96Eh4cH7Ozs8MYbb+DChQsAykP6xo0bYWtrCysrKxw7dkx5/fOCYm0DXH3q378/vL29IZPJMG/evCqnhVT4+++/MWbMGHz11Vc4d+4cvvjiC5iYmAAArl69iokTJ+LatWvo2bMntm3bBgAIDg6Go6Mjzpw5g+PHj2PRokXKwJyeno7Nmzfj1KlTyMzMRGJiosr9NmzYAE9PT5w6dQo7duxA27ZtAQCFhYWYNGkS9u7diz179uDDDz/EgwcPcPjwYaSkpCA+Ph5JSUm4ePEizpw5U6/PsGvXLnz//feIjIwEAKSlpWHu3Lk4ePAgnJ2dlX0QERERVaZRB3V9fX1ERUVh2LBheP/995GUlFSt68aOHYsRI0YgLS0NsbGx6NatG4DyaQ5GRkbIyMjA0qVL8fnnnwNAlUFREwNceHg4kpOToaOjg969e+OHH36osv2JEyfg6Oio3BG2Q4cOynPdunVDv379AJSPXv/1118AgNjYWBw9ehSTJk3CtGnTYGZmhjt37gAAHB0dYWhoCADo3Lmz8poKo0ePxqZNm7Bs2TI8ffpU5dxrr70GAOjYsSPatm2LjIwMxMbG4ubNm5g8eTImTZoEuVyuvFd9PYOXlxdMTU2VfXTo0AEdO3YEUP6F8NlnIiIiInpWo3/zcvz48XB3d8f27dsxduxYjB07FmFhYZW2z8vLQ3p6Ovz8/AAA5ubmKud9fX0hkUjg4OCAtWvXAoBKUASgDIotW7ZUC3DXrl2rj8esMUtLS/zvf/9D3759ERwcjLfffhsSieS5c64VCkW1XuLV0dFBWVmZ8pq5c+cqg3FlJBKJ8poK/fv3R2pqKnbv3o2BAwdix44dcHZ2Vrv23r17MDExgUKhgJeXF4KCgiq9T10/Q1VToJ73TERERETPatQj6hWkUin8/Pxw9uxZrFmzBvfu3asylOrq6r5wLvqzgc7LywvR0dGIjo7GoUOH4OXlpXaNJgS4rVu34ssvv1SOVGdkZKBTp04Aytdnv379OoDy+dwVBg0ahPj4eJw/fx4AcPnyZbWR7md5enoiJCRE2e7GjRvVrjE1NRVNmjTBlClTMGbMGJw8eVJ57tKlSwDKvxzp6enBxsYGHh4e+PLLL5Gfn1/pvRr6GYiIiIhepFEH9bS0NAQEBODevXsAgD///BMtWrSAVCpVCaUlJSX47bffAADt27dHp06dEBUVBaB8ib8XTWOoTlDUFG5uboiPj4e1tTWsra2RkJCAdevWAQDmzp2LxYsX4+2338b169fRsmVLAOWfydatW+Hr6wt7e3vMmjULt2/frvI+y5cvR+vWrWFnZ4d+/fphw4YN1a4xJSUFrq6uyt07K/5SAZS/C9CzZ0+sWLECe/fuhZ6eHjw9PeHv748hQ4agb9++CAgIUHtpuKGfgYiIiOhFJMLLrB/3Eo4fP46hQ4fCwcEBZ8+erbN+PTw8cODAgWq1ffz4MUJCQrB9+3YIgoDWrVtj9erV6N+/P8rKyuDj44Pbt2+jU6dOaN26Ndq1a4fZs2fj8uXLmDp1Km7fvo1mzZohNDQU/fv3h56eHh48eABDQ0OcO3cOvr6+yhdN161bhw0bNsDY2Bjt2rXDrl27kJqaitmzZytfllyzZg2uXLmC9evXv/Tn4O3tjbi4OLXjeXl5CAkJUYZvbaKnpwe5XA4DAwOxS6kTH330EVauXAkzMzOxSyEikSQmJsLZ2RkymUz5F0Mi0hxSqRRyuRzZ2dmwtLQEABQUFuLp07rZtFDr5qjXZHnEJk2aYNmyZVi2bJnaOR0dnUpforSxscHx48fVjv9zqoS9vb0ypAPAzJkzMXPmTJX2AwYMUFnRJDAwsNq1v0hlU2gkEolGLCFZX0T63llvtPl3RURERFXTuqD+onnFjUFZWVmla6nr6+ujuLi4gStqGNr2uy8uLoa+vr7YZRAREZFItG6OuibsDCq2+/fvK9cAf5aRkRGKiooauCKqjcLCwhrvtEtERETaQ+uCesX6243ZgwcPVNbw/icjIyM8fPiwgSui2njy5InYJRAREZGItC6o6+rqil2C6ORyuXJFlufhl5lXA39PREREjZvWBXVDQ0MoFHXzpu2r6tatW2jdunWl55s1a6Z187m1jVwuR/PmzcUug4iIiESkdUG9ffv2yMzMFLsMUaWnp6Nr166VnpfJZDh9+nQDVkQ1deLECfTt21fsMoiIiEhEWhfUbW1tkZ6eLnYZokpPT68y5I0YMQI///xzA1ZENXXkyBF4enqKXQYRUaMXFxcHiUSC6Oho5bELFy6gTZs2GDVqlEpbuVyODz/8EG3btoVUKsWMGTPw6NEj2Nvbw9raWmUjPXt7+yoH1erS1q1bIZVKsXLlyga5H9UdrQvqgwYNwtGjR8UuQ1QXLlyocupL7969OaKuwUpKSpCRkYHOnTuLXQoRkaiOHj0KT09PtG7dGgYGBrC2toafn5/oO3zL5XLcvXtXbWfysLAwREVFYeTIkVi7di28vb2hUCjw999/o6CgAI8fP67XuqKjo/Hdd9+pHS8oKIBcLlfukE6vDq1bR93W1lZlo6HGJi0tDT169KhyoxyJRAI/Pz+EhYXh008/bcDqqDpCQ0Ph5+cndhlERKKaN28eQkNDYW5ujvHjx6Nt27ZIS0tDVFQUduzYgX379mHIkCGi1NavXz/k5+erLYUcHx8PIyMjREVFqexnkpWVBYVCUe9L7q5evRrW1tYYP368yvFPPvkE7733XpWDeKSZtC6oA4C/vz969+6Npk2bil1Kg5PL5di1a9cL202YMAGLFy9Gv379YGRk1ACVUXXI5XKMHDkSo0ePFrsUIiLR7Ny5E6GhoRg0aBDi4uLQrFkz5bmUlBQMHz4cY8aMwYULF2BhYSFKjc974f/hw4cwNjZW23Swof6fvX37NqytrZ97jiH9FSWI5NixYwIAwcHBQawSiIiINFpCQoIAQJDJZGKX0mDKysqELl26CFKpVMjLy3tum61btwoAhNmzZyuPJScnCwCEhQsXqrVv2bKl0L9/f5VjcrlciIyMFJydnQVTU1PByMhIGDx4sPDHH3+otIuNjRUACFu2bFEeKyoqEgAIEydOFARBEK5duyaYmpoKAFR+SkpKBEEQhF69egkdO3ZU6bdXr15Cly5dVI6dPHlS0NfXF/7973/XqM4lS5ao3RuAsGnTpkqfQRAEobS0VFi+fLlgY2MjNGnSRLCyshICAwOFgoIClXYVz7tp0ybh9OnTwqBBgwQTExOhffv2gr+/v1BaWqr2mScmJgrDhw8XTExMBKlUKrz11ltCSkqKSpuAgAChffv2wsOHD4UFCxYIVlZWgrGxsdCnTx/hzJkzan1qIhMTEwGAkJ2drTx2p6BAyPs7v05+tG6OOhEREb26zp8/j6tXr2L06NEwNzd/bpsJEyagWbNmiI2NrfV9pkyZggULFsDBwQGrVq1CYGAgEhMTMWrUqBrPJW/VqhU2btwImUwGU1NT7Nq1C7t27UKTJk2q3Ud2djZ8fHzQp08ffPPNNzWq891338W+ffsAAE5OTjhw4AAOHDiA4cOHV3q/x48fw83NDZ999hmcnJzw5ZdfwsfHB+vXr4eTkxMKCgrUrgkLC8P777+P//znPzh8+DA8PDwQGRmJVatWqbQ7ePAgXFxcUFxcjIiICKxatQqFhYVwdXVFdna2Stu8vDz06tUL+fn52LlzJ7Zt24bc3Fy4u7vjwYMH1f78tJVWTn0hIiKiV9P58+cBAI6OjpW20dfXh4ODA3755RfldJOaCg0NRWRkpMqUEEtLS0yfPh379++Hj49PtfuSSqUYP3481q9fjzt37qjNEX+RkpISeHt7w9DQELGxsTAwMKhRnTY2NsoFCMzNzeHu7v7Ce65evRq//PILVqxYgXnz5imPDxw4EKNHj8bs2bOxZcsWlWv09PQQHx+v3FTRyckJP/zwA3bv3o0FCxYAKJ/COXnyZAwdOhQ//vij8p05X19f2NjYYOnSpSpfRBQKBYKCglTezcrNzYW/vz+OHj0Kb2/van+O2ogj6kRERKQx7t69CwAwMzOrsl1FWCwqKqrVfTp06KASfp88eaKc3/3nn3/Wqs/a+uCDD3D58mUcOHBA7a8I9VVndHQ0WrRogaCgIJXj3t7ecHR0xHfffYeHDx+qnHN0dFTZ+VxXVxddu3bFzZs3lccOHjyI/Px8zJ07V2VhC2NjYwwbNgwnTpxQq2XEiBEq/7a1tQUAlX4bK46oExERkcaoGB2Xy+VVtqs4/+zKKzWRlpaG6OhoHDt2DBcvXlROVan4stAQwsLC8O2338LMzKzSF2Pruk6FQoHLly/DyclJZfS+gr29PZKTk5GVlYUePXpU2ZeRkZFKoK/Yy8bLy0ttBbrS0tJqLfRR8fLts18UGiOOqBMREZHG6NatGwAgIyOjynbp6elo06bNc1dfqY7ly5fD3t4eaWlpWLBgAa5fv44//vgDACAIQq36rKmcnBzMnz8fQUFBKC0tRWBgYIPVKQhCpUs5V7XEc3X6BcpX7jl37pzKz6VLl3D27Nla990YcUSdiIiINIajoyNatGiB2NhYhIeHQ1dXV61NUlISsrOz4evrqzxWMRJfWlr6wntcuXIFixcvxrhx41Q2CLpy5UodPEH1lZaW4qOPPkJERATatGmD+fPn47333oObm1uN66xJuNbV1UW3bt2QkZGBx48fq730+scff8DAwKBWG+9VTFvJysqq1lx5qhpH1ImIiEhjGBgYYPr06bhx4wZCQ0PVzj969AiBgYHQ0dFRGYG2tLQEAFy+fFml/eHDh9WmiOTk5AAABgwYoHI8Ly9P7X4vM7r8IhYWFvjiiy8AALNmzcJrr72GqVOnKqf11KROXV1dNG/eHLdu3arWvSdNmoTCwkJERESoHI+Li0NSUhLGjRtXq5d03d3dYWZmhpCQEGX9FZ48eVLj/ho7BnUiIiLSKAsWLICzszMWLVoEf39/XLx4EQUFBThx4gSGDBmCxMRELFu2DK+//rrymqZNm8LNzQ2HDh3C2rVrkZCQgJUrV+Ljjz9Ghw4dVPq3s7NDs2bNsGXLFqSmpuLKlSsICwvDO++8o1ZLxcuTcXFx+Ouvv+r0OY2NjaGnVz65QV9fH1988QVu3LiBzz77rMZ1AsCbb76J1NRUfPLJJ9iwYcNzX9ys8Mknn8DFxQXz58+Hr68vNm7ciICAAIwZMwZdunRBeHh4rZ6padOm2Lx5M4qKimBnZ4eFCxfim2++wcKFC9GlSxccOnSoVv02VgzqREREpFGMjIxw5MgRTJ8+HZs2bcK//vUvtGrVCkOGDEFOTg62b9+ORYsWqV23efNmjBw5EsuWLcOoUaNw8eJFxMfHo3fv3irtWrRogf3790NPTw8uLi4YOHAgrl27hrNnz6JVq1YqbZ2cnDB8+HD89NNPOHnyZL0+9+DBgzFhwgRERkYiOTm5RnUCwLp16+Du7o6vvvoKCxcuRHJycqX3MjAwwM8//4wlS5YgKSkJM2bMQExMDKZOnYqkpKSX2snUy8sLCQkJcHV1xddffw0/Pz/s3bsXU6ZMgbOzc637bYwkQkO9MfGM48ePY+jQoXBwcOCLBURERM+RmJgIZ2dnyGQyXLp0SexyRPHgwQNER0dj5syZ8PHxwe7du+t1OgpRTUilUsjlcmRnZyunXxUUFuLpU0Wd9M8RdSIiItJYUqkUM2bMwIQJE7B3715MmDABx44dQ1ZWFn7//Xcu4Udajau+EBERkcbbsWMHunfvjjVr1uD7779XHj9w4ABXFyGtxaBOREREGk9HRweLFi3C7NmzkZmZiby8PLRs2RJ2dnZil0ZUbxjUiYiI6JVhaGiInj17omfPnmKXQlTvOEediIiIiEgDMagTEREREWkgBnUiIiIiIg3EoE5EREREpIEY1ImIiIiINBCDOhERERGRBmJQJyIiIiLSQAzqREREREQaiEGdiIiIiEgDMagTEREREWkgBnUiIiIiIg0kelAvKCgQuwQiIiIiIo0jWlDv3r07AODmzZu4evWqWGUQEREREWkk0YJ627Zt4erqCgAIDg4WqwwiIiIiIo0k6tSXpUuXAgC2bduGsWPH4v79+2KWQ0RERESkMUQN6oMGDUJERAQAYM+ePbC0tMSsWbNw69YtMcsiIiIiIhKdntgFBAUFoWvXrpg8eTLu3LmDiIgIREREwNLSEjKZDDY2NmjTpo3YZRIRETW4x48fi10CEYlI9KAOAB4eHrh48SKCg4MRFRWF0tJS3Lp1C7du3cKxY8fELo+IiEgUPXr0ELsEIhKRRBAEQewi/unu3bs4efIkrly5gtzcXFy9ehVFRUUv1adEIqmj6oiIiBpOy5YtERMTA5lMhkuXLoldDhE9QyqVQi6XIzs7G5aWlgCAgsJCPH2qqJP+NWJE/Z+aN28OT09PscsgIiISXWJiImJiYsQug4hEIvqGR0REREREpI5BnYiIiIhIAzGoExERERFpIAZ1IiIiIiINxKBORERERKSBGNSJiIiIiDQQgzoRERERkQZiUCciIiIi0kAM6kREREREGkjjdiYlIiIiVX/++SckEonYZRBRA+OIOhERkYZycnLCxIkT0bFjR7FLIaLnkMlkCAgIgKWlZb30LxEEQaiXnomIiIiIGpmCwkI8faqok744ok5EREREpIEY1ImIiIiINBCDOhERERGRBmJQJyIiIiLSQAzqREREREQaiEGdiIiIiEgDMagTEREREWkgBnUiIiIiIg3EoE5EREREpIEY1ImIiIiINBCDOhERERGRBmJQJyIiIiLSQAzqREREREQaiEGdiIiIiEgDMagTEREREWkgBnUiIiIiIg30f1jEVBDl2herAAAAAElFTkSuQmCC;" vertex="1" parent="1">
          <mxGeometry x="-150" y="70" width="387.85" height="444" as="geometry" />
        </mxCell>
        <mxCell id="Zpmlk8HqZ0rBQj-vJT5J-2" value="" style="rounded=0;whiteSpace=wrap;html=1;fillColor=none;strokeColor=#99CCFF;strokeWidth=2;" vertex="1" parent="1">
          <mxGeometry x="-120" y="160" width="300" height="250" as="geometry" />
        </mxCell>
        <mxCell id="Zpmlk8HqZ0rBQj-vJT5J-3" value="" style="endArrow=classic;html=1;rounded=0;strokeColor=#99CCFF;strokeWidth=2;" edge="1" parent="1">
          <mxGeometry width="50" height="50" relative="1" as="geometry">
            <mxPoint x="180" y="177" as="sourcePoint" />
            <mxPoint x="280" y="177" as="targetPoint" />
          </mxGeometry>
        </mxCell>
        <mxCell id="Zpmlk8HqZ0rBQj-vJT5J-4" value="&amp;lt;div&amp;gt;-Element" style="text;html=1;align=left;verticalAlign=middle;whiteSpace=wrap;rounded=0;fontColor=#000000;" vertex="1" parent="1">
          <mxGeometry x="283" y="163" width="200" height="30" as="geometry" />
        </mxCell>
        <mxCell id="Zpmlk8HqZ0rBQj-vJT5J-5" value="" style="rounded=0;whiteSpace=wrap;html=1;fontColor=default;fillColor=none;strokeColor=#FF0000;strokeWidth=2;" vertex="1" parent="1">
          <mxGeometry x="-110" y="161" width="280" height="86" as="geometry" />
        </mxCell>
        <mxCell id="Zpmlk8HqZ0rBQj-vJT5J-6" value="" style="rounded=0;whiteSpace=wrap;html=1;fontColor=default;fillColor=none;strokeColor=#FF0000;strokeWidth=2;" vertex="1" parent="1">
          <mxGeometry x="-110" y="254" width="280" height="153" as="geometry" />
        </mxCell>
        <mxCell id="Zpmlk8HqZ0rBQj-vJT5J-7" value="" style="endArrow=classic;html=1;rounded=0;exitX=0.992;exitY=0.217;exitDx=0;exitDy=0;exitPerimeter=0;fontColor=#FF0000;labelBackgroundColor=#FF0000;strokeColor=#FF0000;strokeWidth=2;" edge="1" parent="1" source="Zpmlk8HqZ0rBQj-vJT5J-6">
          <mxGeometry width="50" height="50" relative="1" as="geometry">
            <mxPoint x="170" y="293.25" as="sourcePoint" />
            <mxPoint x="280" y="287" as="targetPoint" />
          </mxGeometry>
        </mxCell>
        <mxCell id="Zpmlk8HqZ0rBQj-vJT5J-8" value="Partials" style="text;html=1;align=left;verticalAlign=middle;whiteSpace=wrap;rounded=0;" vertex="1" parent="1">
          <mxGeometry x="284" y="273" width="200" height="30" as="geometry" />
        </mxCell>
        <mxCell id="Zpmlk8HqZ0rBQj-vJT5J-10" value="" style="rounded=0;whiteSpace=wrap;html=1;fillColor=none;strokeColor=#99CCFF;strokeWidth=2;" vertex="1" parent="1">
          <mxGeometry x="97.85" y="441" width="140" height="70" as="geometry" />
        </mxCell>
        <mxCell id="Zpmlk8HqZ0rBQj-vJT5J-11" value="" style="endArrow=classic;html=1;rounded=0;strokeColor=#99CCFF;" edge="1" parent="1">
          <mxGeometry width="50" height="50" relative="1" as="geometry">
            <mxPoint x="240" y="480" as="sourcePoint" />
            <mxPoint x="280" y="480" as="targetPoint" />
          </mxGeometry>
        </mxCell>
        <mxCell id="Zpmlk8HqZ0rBQj-vJT5J-12" value="&amp;lt;div&amp;gt;-Element" style="text;html=1;align=left;verticalAlign=middle;whiteSpace=wrap;rounded=0;fontColor=#000000;" vertex="1" parent="1">
          <mxGeometry x="284" y="466" width="200" height="30" as="geometry" />
        </mxCell>
      </root>
    </mxGraphModel>
  </diagram>
</mxfile>
